<svg data-v-423bf9ae="" xmlns="http://www.w3.org/2000/svg" viewBox="0 0 2911 1505" class="iconLeftSlogan"><!----><!----><!----><g data-v-423bf9ae="" id="835cc3a7-3b7f-4b4b-ad47-f138f9d49710" fill="#000000" transform="matrix(4.225352169431124,0,0,4.225352169431124,2078.988365545878,-14.57746447076213)"><path d="M0.42 14.44L0.42 14.44L0.42 14.01Q0.42 13.81 0.63 13.81L0.63 13.81L0.64 13.81Q1.66 13.81 1.66 12.48L1.66 12.48L1.66 6.32Q1.66 4.99 0.64 4.99L0.64 4.99L0.63 4.99Q0.42 4.99 0.42 4.78L0.42 4.78L0.42 4.36Q0.42 4.15 0.63 4.15L0.63 4.15L4.88 4.15Q4.99 4.15 5.06 4.21Q5.13 4.27 5.13 4.36L5.13 4.36L5.13 4.78Q5.13 4.87 5.00 4.93Q4.87 4.99 4.74 4.99L4.74 4.99L3.90 4.99L3.90 12.33Q3.90 13.62 4.86 13.65L4.86 13.65L5.40 13.65Q5.70 13.65 5.91 13.63Q6.13 13.62 6.43 13.56Q6.73 13.49 6.99 13.35Q7.25 13.21 7.54 12.98Q7.84 12.76 8.14 12.40Q8.44 12.03 8.74 11.55L8.74 11.55L8.78 11.47Q8.86 11.35 8.96 11.35L8.96 11.35Q9.02 11.35 9.08 11.39L9.08 11.39L9.52 11.65Q9.64 11.72 9.64 11.82L9.64 11.82Q9.64 11.89 9.60 11.94L9.60 11.94L8.29 14.72Q8.24 14.84 8.12 14.84L8.12 14.84Q8.07 14.84 8.00 14.79L8.00 14.79L7.92 14.72Q7.83 14.65 7.65 14.65L7.65 14.65L0.63 14.65Q0.42 14.65 0.42 14.44ZM10.27 11.13L10.27 11.13Q10.27 10.19 10.54 9.47Q10.81 8.75 11.28 8.32Q11.74 7.90 12.32 7.68Q12.89 7.46 13.55 7.46L13.55 7.46Q14.92 7.46 15.82 8.28L15.82 8.28Q15.98 8.21 16.12 8.15Q16.26 8.08 16.39 8.01Q16.52 7.94 16.60 7.90Q16.68 7.85 16.79 7.78Q16.90 7.71 16.94 7.69Q16.97 7.66 17.08 7.58Q17.19 7.50 17.21 7.49L17.21 7.49Q17.25 7.46 17.27 7.46L17.27 7.46L17.30 7.46Q17.32 7.46 17.32 7.49L17.32 7.49L17.32 12.05Q17.32 12.34 17.36 12.54Q17.39 12.75 17.48 12.95Q17.56 13.15 17.73 13.27Q17.90 13.39 18.14 13.42L18.14 13.42Q18.32 13.44 18.31 13.60L18.31 13.60L18.31 14.08Q18.31 14.26 18.10 14.26L18.10 14.26Q17.46 14.26 16.94 14.35Q16.43 14.44 16.18 14.53Q15.94 14.62 15.52 14.80L15.52 14.80Q15.47 14.83 15.41 14.83L15.41 14.83L15.37 14.83Q15.35 14.83 15.35 14.78L15.35 14.78L15.52 13.54Q15.44 13.72 15.31 13.90Q15.18 14.09 14.94 14.31Q14.70 14.54 14.29 14.68Q13.88 14.83 13.38 14.83L13.38 14.83Q12.98 14.83 12.57 14.71Q12.15 14.59 11.74 14.30Q11.32 14.01 11.00 13.60Q10.68 13.19 10.48 12.55Q10.27 11.91 10.27 11.13ZM12.08 10.68L12.08 10.68Q12.08 12.01 12.61 12.80Q13.15 13.59 14.01 13.59L14.01 13.59Q14.31 13.59 14.55 13.49Q14.79 13.40 14.94 13.27Q15.08 13.13 15.18 13.00Q15.29 12.86 15.33 12.76L15.33 12.76L15.36 12.67L15.36 9.86Q15.31 9.61 15.22 9.39Q15.13 9.16 14.96 8.92Q14.79 8.68 14.49 8.54Q14.19 8.39 13.80 8.39Q13.41 8.39 13.10 8.52Q12.80 8.65 12.61 8.87Q12.42 9.08 12.30 9.38Q12.17 9.68 12.13 9.99Q12.08 10.31 12.08 10.68ZM18.15 8.28L18.15 8.28L18.15 7.85Q18.15 7.65 18.36 7.65L18.36 7.65L18.40 7.64L21.21 7.64Q21.42 7.64 21.42 7.85L21.42 7.85L21.42 11.93Q21.42 11.97 21.42 12.04L21.42 12.04Q21.42 12.26 21.42 12.37Q21.42 12.48 21.44 12.67Q21.46 12.87 21.49 12.97Q21.53 13.07 21.60 13.21Q21.68 13.34 21.78 13.42Q21.89 13.49 22.05 13.54Q22.22 13.59 22.43 13.59L22.43 13.59Q22.93 13.59 23.44 13.22Q23.95 12.86 24.13 12.40L24.13 12.40L24.13 9.82Q24.13 9.22 23.86 8.85Q23.60 8.48 23.11 8.48L23.11 8.48L23.07 8.48Q22.87 8.48 22.87 8.28L22.87 8.28L22.87 7.85Q22.87 7.66 23.08 7.64L23.08 7.64L25.89 7.64Q26.10 7.64 26.10 7.85L26.10 7.85L26.10 11.81Q26.10 12.15 26.12 12.37Q26.15 12.60 26.22 12.85Q26.30 13.10 26.48 13.25Q26.65 13.39 26.93 13.42L26.93 13.42Q27.10 13.44 27.09 13.60L27.09 13.60L27.09 14.08Q27.09 14.26 26.89 14.26L26.89 14.26Q26.24 14.26 25.72 14.35Q25.20 14.44 24.98 14.53Q24.75 14.61 24.32 14.80L24.32 14.80Q24.26 14.83 24.20 14.83L24.20 14.83L24.17 14.83Q24.14 14.83 24.14 14.78L24.14 14.78L24.36 13.02Q24.21 13.34 23.98 13.63Q23.75 13.93 23.44 14.21Q23.13 14.49 22.71 14.66Q22.29 14.83 21.83 14.83L21.83 14.83Q21.25 14.83 20.82 14.67Q20.38 14.51 20.13 14.27Q19.87 14.02 19.72 13.65Q19.56 13.29 19.51 12.93Q19.46 12.56 19.46 12.13L19.46 12.13L19.46 9.82Q19.46 9.22 19.19 8.85Q18.92 8.48 18.42 8.48L18.42 8.48L18.36 8.48Q18.15 8.48 18.15 8.28ZM27.60 14.43L27.60 14.43L27.60 14.01Q27.60 13.80 27.81 13.80L27.81 13.80L27.84 13.80Q28.33 13.80 28.60 13.43Q28.86 13.06 28.86 12.47L28.86 12.47L28.86 10.71Q28.86 10.37 28.84 10.14Q28.81 9.92 28.74 9.67Q28.66 9.41 28.49 9.27Q28.31 9.13 28.03 9.10L28.03 9.10Q27.86 9.08 27.87 8.92L27.87 8.92L27.87 8.44Q27.87 8.29 28.07 8.26L28.07 8.26Q28.96 8.11 29.72 7.81Q30.48 7.50 30.84 7.24L30.84 7.24Q30.89 7.21 30.91 7.21L30.91 7.21L30.94 7.21Q30.95 7.21 30.95 7.23L30.95 7.23L30.71 9.06Q31.71 7.46 33.13 7.46L33.13 7.46Q33.71 7.46 34.14 7.62Q34.58 7.77 34.83 8.02Q35.09 8.27 35.24 8.64Q35.40 9.00 35.45 9.37Q35.51 9.73 35.51 10.17L35.51 10.17L35.51 12.47Q35.51 13.06 35.77 13.43Q36.04 13.80 36.54 13.80L36.54 13.80L36.60 13.80Q36.81 13.80 36.81 14.01L36.81 14.01L36.81 14.43Q36.81 14.64 36.60 14.64L36.60 14.64L32.80 14.64Q32.59 14.64 32.59 14.43L32.59 14.43L32.59 14.01Q32.59 13.80 32.81 13.80L32.81 13.80Q33.19 13.81 33.37 13.44L33.37 13.44Q33.54 13.10 33.54 12.55L33.54 12.55Q33.54 12.51 33.54 12.47L33.54 12.47L33.54 10.36Q33.54 10.32 33.54 10.25L33.54 10.25Q33.54 10.04 33.54 9.92Q33.54 9.81 33.52 9.62Q33.50 9.43 33.47 9.32Q33.43 9.21 33.36 9.08Q33.28 8.94 33.18 8.87Q33.07 8.80 32.91 8.75Q32.74 8.70 32.53 8.70L32.53 8.70Q32.03 8.70 31.52 9.06Q31.01 9.43 30.83 9.89L30.83 9.89L30.83 12.47Q30.83 13.06 31.10 13.43Q31.36 13.80 31.86 13.80L31.86 13.80L31.89 13.80Q32.09 13.80 32.09 14.01L32.09 14.01L32.09 14.43Q32.09 14.64 31.88 14.64L31.88 14.64L27.81 14.64Q27.60 14.64 27.60 14.43ZM36.82 11.13L36.82 11.13Q36.82 10.19 37.09 9.47Q37.36 8.75 37.82 8.32Q38.29 7.90 38.86 7.68Q39.44 7.46 40.09 7.46L40.09 7.46Q41.16 7.46 41.91 8.11L41.91 8.11L41.91 7.23Q41.91 6.88 41.89 6.66Q41.86 6.43 41.78 6.18Q41.71 5.93 41.53 5.78Q41.35 5.64 41.08 5.61L41.08 5.61Q40.90 5.59 40.91 5.43L40.91 5.43L40.91 4.96Q40.91 4.87 40.96 4.84Q41.00 4.81 41.12 4.77L41.12 4.77Q42.68 4.25 43.75 3.47L43.75 3.47Q43.79 3.45 43.81 3.45L43.81 3.45L43.85 3.45Q43.86 3.45 43.86 3.47L43.86 3.47L43.86 12.05Q43.87 12.34 43.90 12.54Q43.93 12.75 44.02 12.95Q44.11 13.15 44.27 13.27Q44.44 13.39 44.69 13.42L44.69 13.42Q44.86 13.44 44.85 13.60L44.85 13.60L44.85 14.08Q44.85 14.26 44.65 14.26L44.65 14.26Q44.01 14.26 43.49 14.35Q42.97 14.44 42.74 14.53Q42.51 14.61 42.08 14.80L42.08 14.80Q42.02 14.83 41.95 14.83L41.95 14.83L41.92 14.83Q41.89 14.83 41.90 14.78L41.90 14.78L42.06 13.54Q41.99 13.72 41.86 13.90Q41.73 14.09 41.48 14.31Q41.24 14.54 40.83 14.68Q40.43 14.83 39.92 14.83L39.92 14.83Q39.53 14.83 39.11 14.71Q38.70 14.59 38.28 14.30Q37.86 14.01 37.54 13.60Q37.22 13.19 37.02 12.55Q36.82 11.91 36.82 11.13ZM38.62 10.68L38.62 10.68Q38.62 12.01 39.16 12.80Q39.69 13.59 40.56 13.59L40.56 13.59Q40.85 13.59 41.09 13.47Q41.34 13.34 41.48 13.17Q41.62 13.00 41.73 12.83Q41.83 12.65 41.87 12.53L41.87 12.53L41.90 12.41L41.90 10.11Q41.82 9.42 41.42 8.98Q41.02 8.53 40.35 8.53L40.35 8.53Q38.62 8.53 38.62 10.68ZM45.45 14.43L45.45 14.43L45.45 14.01Q45.45 13.80 45.65 13.80L45.65 13.80L45.68 13.80Q46.18 13.80 46.44 13.43Q46.70 13.06 46.70 12.47L46.70 12.47L46.70 10.71Q46.70 10.37 46.68 10.14Q46.66 9.92 46.58 9.67Q46.50 9.41 46.33 9.27Q46.15 9.13 45.88 9.10L45.88 9.10Q45.70 9.08 45.71 8.92L45.71 8.92L45.71 8.44Q45.71 8.29 45.91 8.26L45.91 8.26Q46.81 8.11 47.56 7.81Q48.32 7.50 48.69 7.24L48.69 7.24Q48.73 7.21 48.75 7.21L48.75 7.21L48.78 7.21Q48.79 7.21 48.79 7.23L48.79 7.23L48.47 9.11Q48.84 8.32 49.50 7.89Q50.16 7.46 50.93 7.46L50.93 7.46Q51.62 7.46 52.07 7.84Q52.51 8.22 52.51 8.91L52.51 8.91Q52.51 9.28 52.45 9.49Q52.38 9.70 52.14 9.80L52.14 9.80L50.83 10.34Q50.77 10.36 50.71 10.36L50.71 10.36Q50.58 10.36 50.58 10.23L50.58 10.23Q50.58 10.16 50.61 10.10L50.61 10.10Q50.74 9.79 50.74 9.41L50.74 9.41Q50.74 9.04 50.56 8.86Q50.37 8.68 50.07 8.68L50.07 8.68Q49.64 8.68 49.25 9.06Q48.86 9.44 48.67 9.89L48.67 9.89L48.67 12.47Q48.67 13.06 48.94 13.43Q49.21 13.80 49.70 13.80L49.70 13.80L49.72 13.80Q49.94 13.80 49.94 14.01L49.94 14.01L49.94 14.43Q49.94 14.64 49.72 14.64L49.72 14.64L45.65 14.64Q45.45 14.64 45.45 14.43ZM52.97 8.26L52.97 8.26L52.97 7.85Q52.97 7.64 53.18 7.64L53.18 7.64L56.42 7.64Q56.62 7.64 56.62 7.85L56.62 7.85L56.62 8.26Q56.62 8.48 56.42 8.48L56.42 8.48L56.39 8.48Q55.95 8.48 55.95 8.84L55.95 8.84Q55.95 9.10 56.26 9.80L56.26 9.80L57.20 11.85L58.21 9.77Q58.56 9.06 58.56 8.78L58.56 8.78Q58.56 8.48 58.24 8.48L58.24 8.48L57.99 8.48Q57.78 8.48 57.78 8.26L57.78 8.26L57.78 7.85Q57.78 7.64 57.99 7.64L57.99 7.64L60.70 7.64Q60.90 7.64 60.90 7.85L60.90 7.85L60.90 8.26Q60.90 8.48 60.70 8.48L60.70 8.48L60.49 8.48Q60.26 8.48 60.09 8.66Q59.92 8.84 59.68 9.35L59.68 9.35L55.62 17.53Q55.53 17.71 55.34 17.62L55.34 17.62L54.62 17.26Q54.42 17.17 54.52 16.98L54.52 16.98L56.08 13.62L54.02 9.36Q53.76 8.82 53.62 8.65Q53.47 8.48 53.22 8.48L53.22 8.48L53.18 8.48Q52.97 8.48 52.97 8.26ZM64.97 14.43L64.97 14.43L64.97 14.01Q64.97 13.80 65.17 13.80L65.17 13.80L65.27 13.80Q66.21 13.75 66.21 12.47L66.21 12.47L66.21 6.32Q66.21 5.03 65.27 4.98L65.27 4.98L65.17 4.98Q64.97 4.98 64.97 4.77L64.97 4.77L64.97 4.35Q64.97 4.14 65.17 4.14L65.17 4.14L69.48 4.14Q69.69 4.14 69.69 4.35L69.69 4.35L69.69 4.77Q69.69 4.98 69.48 4.98L69.48 4.98L69.40 4.98Q68.46 5.03 68.46 6.32L68.46 6.32L68.46 12.47Q68.46 13.75 69.40 13.80L69.40 13.80L69.48 13.80Q69.69 13.80 69.69 14.01L69.69 14.01L69.69 14.43Q69.69 14.64 69.48 14.64L69.48 14.64L65.17 14.64Q64.97 14.64 64.97 14.43ZM70.38 14.43L70.38 14.43L70.38 14.01Q70.38 13.80 70.59 13.80L70.59 13.80L70.62 13.80Q71.11 13.80 71.37 13.43Q71.63 13.06 71.63 12.47L71.63 12.47L71.63 10.71Q71.63 10.37 71.61 10.14Q71.59 9.92 71.51 9.67Q71.44 9.41 71.26 9.27Q71.08 9.13 70.81 9.10L70.81 9.10Q70.63 9.08 70.64 8.92L70.64 8.92L70.64 8.44Q70.64 8.29 70.85 8.26L70.85 8.26Q71.74 8.11 72.50 7.81Q73.25 7.51 73.62 7.24L73.62 7.24Q73.67 7.21 73.68 7.21L73.68 7.21L73.71 7.21Q73.73 7.21 73.73 7.23L73.73 7.23L73.48 9.06Q74.48 7.46 75.90 7.46L75.90 7.46Q77.70 7.46 78.13 8.83L78.13 8.83Q79.18 7.46 80.70 7.46L80.70 7.46Q81.28 7.46 81.71 7.62Q82.15 7.77 82.40 8.02Q82.66 8.27 82.81 8.64Q82.97 9.00 83.02 9.37Q83.08 9.73 83.08 10.17L83.08 10.17L83.08 12.47Q83.08 13.06 83.34 13.43Q83.61 13.80 84.11 13.80L84.11 13.80L84.25 13.80Q84.46 13.80 84.46 14.01L84.46 14.01L84.46 14.43Q84.46 14.64 84.25 14.64L84.25 14.64L80.31 14.64Q80.10 14.64 80.10 14.43L80.10 14.43L80.10 14.01Q80.10 13.80 80.31 13.80L80.31 13.80L80.38 13.80Q80.80 13.80 80.95 13.49Q81.11 13.18 81.11 12.47L81.11 12.47L81.11 10.36Q81.11 10.32 81.11 10.23L81.11 10.23Q81.11 9.99 81.10 9.86Q81.10 9.73 81.08 9.51Q81.05 9.30 80.99 9.18Q80.92 9.06 80.82 8.94Q80.71 8.81 80.53 8.75Q80.35 8.70 80.10 8.70L80.10 8.70Q79.53 8.70 79.06 9.05Q78.60 9.41 78.29 10.02L78.29 10.02L78.29 12.47Q78.29 13.21 78.51 13.50Q78.74 13.80 79.17 13.80L79.17 13.80L79.28 13.80Q79.49 13.80 79.49 14.01L79.49 14.01L79.49 14.43Q79.49 14.64 79.28 14.64L79.28 14.64L75.48 14.64Q75.27 14.64 75.27 14.43L75.27 14.43L75.27 14.01Q75.27 13.80 75.48 13.80L75.48 13.80L75.58 13.80Q75.91 13.80 76.12 13.49L76.12 13.49Q76.32 13.19 76.32 12.52L76.32 12.52Q76.32 12.50 76.32 12.47L76.32 12.47L76.32 10.36Q76.32 10.32 76.32 10.23L76.32 10.23Q76.32 9.95 76.31 9.81Q76.31 9.68 76.28 9.46Q76.25 9.24 76.19 9.14Q76.13 9.03 76.02 8.91Q75.91 8.79 75.73 8.74Q75.55 8.70 75.30 8.70L75.30 8.70Q74.80 8.70 74.29 9.06Q73.79 9.43 73.60 9.89L73.60 9.89L73.60 12.47Q73.60 13.05 73.85 13.43Q74.09 13.80 74.49 13.80L74.49 13.80L74.53 13.80Q74.74 13.80 74.74 14.01L74.74 14.01L74.74 14.43Q74.74 14.64 74.53 14.64L74.53 14.64L70.59 14.64Q70.38 14.64 70.38 14.43ZM84.32 17.23L84.32 16.81Q84.32 16.60 84.55 16.60L84.55 16.60Q85.05 16.60 85.31 16.24L85.31 16.24Q85.56 15.89 85.56 15.33L85.56 15.33Q85.56 15.30 85.56 15.27L85.56 15.27L85.57 15.00L85.57 10.46Q85.57 10.19 85.56 10.01Q85.54 9.82 85.50 9.60Q85.45 9.37 85.36 9.23Q85.28 9.09 85.12 8.98Q84.96 8.87 84.74 8.85L84.74 8.85Q84.56 8.83 84.57 8.67L84.57 8.67L84.57 8.20Q84.57 8.01 84.78 8.01L84.78 8.01Q85.42 8.01 85.94 7.92Q86.46 7.83 86.69 7.75Q86.91 7.66 87.35 7.47L87.35 7.47Q87.40 7.44 87.47 7.44L87.47 7.44L87.50 7.44Q87.52 7.44 87.51 7.49L87.51 7.49L87.36 8.74Q87.42 8.60 87.50 8.46Q87.59 8.31 87.77 8.12Q87.94 7.93 88.17 7.79Q88.39 7.65 88.74 7.55Q89.09 7.44 89.50 7.44L89.50 7.44Q89.89 7.44 90.31 7.56Q90.72 7.68 91.14 7.97Q91.55 8.25 91.88 8.66Q92.20 9.08 92.40 9.72Q92.60 10.36 92.60 11.14L92.60 11.14Q92.60 12.07 92.33 12.80Q92.06 13.52 91.60 13.95Q91.14 14.38 90.56 14.60Q89.99 14.81 89.33 14.81L89.33 14.81Q88.27 14.81 87.51 14.16L87.51 14.16L87.51 15.27Q87.51 15.87 87.78 16.24Q88.05 16.60 88.55 16.60L88.55 16.60Q88.75 16.60 88.75 16.81L88.75 16.81L88.75 17.23Q88.75 17.45 88.55 17.45L88.55 17.45L84.53 17.45Q84.32 17.45 84.32 17.23L84.32 17.23ZM87.51 9.60L87.51 12.15Q87.60 12.87 88.01 13.38Q88.42 13.90 89.08 13.90L89.08 13.90Q89.47 13.90 89.78 13.77Q90.08 13.64 90.27 13.42Q90.46 13.21 90.58 12.90Q90.71 12.60 90.75 12.28Q90.80 11.96 90.80 11.59L90.80 11.59Q90.80 10.26 90.27 9.47Q89.74 8.68 88.87 8.68L88.87 8.68Q88.57 8.68 88.33 8.78Q88.08 8.87 87.94 9.01Q87.79 9.15 87.69 9.28Q87.59 9.41 87.55 9.51L87.55 9.51L87.51 9.60ZM93.43 11.13L93.43 11.13Q93.43 10.19 93.70 9.47Q93.97 8.75 94.44 8.32Q94.90 7.90 95.48 7.68Q96.05 7.46 96.71 7.46L96.71 7.46Q98.08 7.46 98.98 8.28L98.98 8.28Q99.14 8.21 99.28 8.15Q99.42 8.08 99.55 8.01Q99.67 7.94 99.76 7.90Q99.84 7.85 99.95 7.78Q100.06 7.71 100.10 7.69Q100.13 7.66 100.24 7.58Q100.35 7.50 100.37 7.49L100.37 7.49Q100.41 7.46 100.43 7.46L100.43 7.46L100.46 7.46Q100.47 7.46 100.47 7.49L100.47 7.49L100.47 12.05Q100.48 12.34 100.52 12.54Q100.55 12.75 100.64 12.95Q100.72 13.15 100.89 13.27Q101.06 13.39 101.30 13.42L101.30 13.42Q101.48 13.44 101.47 13.60L101.47 13.60L101.47 14.08Q101.47 14.26 101.26 14.26L101.26 14.26Q100.62 14.26 100.10 14.35Q99.59 14.44 99.34 14.53Q99.10 14.62 98.68 14.80L98.68 14.80Q98.63 14.83 98.57 14.83L98.57 14.83L98.53 14.83Q98.51 14.83 98.51 14.78L98.51 14.78L98.68 13.54Q98.60 13.72 98.47 13.90Q98.34 14.09 98.10 14.31Q97.86 14.54 97.45 14.68Q97.04 14.83 96.54 14.83L96.54 14.83Q96.14 14.83 95.73 14.71Q95.31 14.59 94.90 14.30Q94.48 14.01 94.16 13.60Q93.84 13.19 93.64 12.55Q93.43 11.91 93.43 11.13ZM95.24 10.68L95.24 10.68Q95.24 12.01 95.77 12.80Q96.30 13.59 97.17 13.59L97.17 13.59Q97.47 13.59 97.71 13.49Q97.95 13.40 98.10 13.27Q98.24 13.13 98.34 13.00Q98.44 12.86 98.49 12.76L98.49 12.76L98.52 12.67L98.52 9.86Q98.47 9.61 98.38 9.39Q98.29 9.16 98.12 8.92Q97.95 8.68 97.65 8.54Q97.35 8.39 96.96 8.39Q96.57 8.39 96.26 8.52Q95.96 8.65 95.77 8.87Q95.58 9.08 95.46 9.38Q95.33 9.68 95.29 9.99Q95.24 10.31 95.24 10.68ZM101.79 10.81L101.79 10.81Q101.86 9.97 102.19 9.31Q102.53 8.65 103.03 8.26Q103.54 7.88 104.12 7.68Q104.71 7.48 105.32 7.48L105.32 7.48L105.58 7.49Q106.76 7.57 107.36 8.11Q107.96 8.64 108.12 9.41L108.12 9.41L108.13 9.47Q108.13 9.61 107.97 9.65L107.97 9.65L106.36 10.08Q106.29 10.10 106.24 10.10L106.24 10.10Q106.18 10.10 106.15 10.08Q106.12 10.06 106.13 10.01L106.13 10.01L106.14 9.86Q106.15 9.79 106.15 9.71L106.15 9.71Q106.15 9.21 105.90 8.93L105.90 8.93Q105.61 8.60 105 8.59L105 8.59Q104.37 8.59 104.02 9.09Q103.67 9.58 103.61 10.36L103.61 10.36Q103.58 10.72 103.58 10.89L103.58 10.89Q103.58 11.44 103.68 11.90Q103.78 12.37 104.00 12.75Q104.21 13.13 104.60 13.35Q104.98 13.58 105.49 13.58L105.49 13.58Q105.57 13.58 105.75 13.56L105.75 13.56Q106.18 13.52 106.60 13.27Q107.01 13.01 107.31 12.56L107.31 12.56Q107.38 12.46 107.47 12.46L107.47 12.46Q107.54 12.46 107.60 12.50L107.60 12.50L107.97 12.76Q108.13 12.87 108.05 13.04L108.05 13.04Q107.33 14.56 105.50 14.75L105.50 14.75Q105.31 14.77 105.12 14.77L105.12 14.77Q104.35 14.77 103.69 14.43Q103.03 14.10 102.60 13.54L102.60 13.54Q102.16 12.99 101.94 12.27L101.94 12.27Q101.77 11.71 101.77 11.13L101.77 11.13Q101.77 10.97 101.79 10.81ZM108.66 8.27L108.66 8.27L108.66 7.85Q108.66 7.64 108.88 7.64L108.88 7.64L109.89 7.64L109.89 6.71Q109.89 6.53 110.02 6.45L110.02 6.45Q110.99 5.93 111.73 5.30L111.73 5.30Q111.77 5.26 111.79 5.26L111.79 5.26L111.82 5.26Q111.85 5.26 111.85 5.28L111.85 5.28L111.85 7.64L113.72 7.64Q113.93 7.64 113.93 7.85L113.93 7.85L113.93 8.46Q113.93 8.67 113.72 8.67L113.72 8.67L111.86 8.67L111.86 12.67Q111.86 13.62 112.44 13.62L112.44 13.62Q112.79 13.62 113.44 13.22L113.44 13.22L113.45 13.21Q113.51 13.17 113.57 13.17L113.57 13.17Q113.66 13.17 113.74 13.28L113.74 13.28L113.96 13.63Q114.00 13.69 114.00 13.75L114.00 13.75Q114.00 13.84 113.89 13.92L113.89 13.92L113.48 14.18Q112.44 14.82 111.51 14.82L111.51 14.82Q111.17 14.82 110.89 14.71Q110.61 14.61 110.38 14.37Q110.15 14.13 110.02 13.70Q109.89 13.27 109.89 12.67L109.89 12.67L109.89 10.08Q109.89 9.86 109.88 9.74Q109.88 9.63 109.86 9.43Q109.85 9.24 109.81 9.13Q109.77 9.02 109.70 8.88Q109.63 8.74 109.52 8.66Q109.42 8.59 109.25 8.54Q109.09 8.48 108.88 8.48Q108.66 8.48 108.66 8.27ZM118.06 4.78L118.06 4.78L118.06 4.35Q118.06 4.14 118.28 4.14L118.28 4.14L125.29 4.14Q125.47 4.14 125.56 4.07L125.56 4.07L125.64 4.00Q125.71 3.95 125.75 3.95L125.75 3.95Q125.86 3.95 125.93 4.07L125.93 4.07L127.05 5.97Q127.09 6.04 127.09 6.10L127.09 6.10Q127.09 6.19 126.97 6.27L126.97 6.27L126.38 6.58Q126.32 6.62 126.26 6.62L126.26 6.62Q126.16 6.62 126.09 6.51L126.09 6.51L126.04 6.43Q125.30 5.14 123.53 5.14L123.53 5.14L121.46 5.14L121.46 8.56L122.77 8.56Q124.05 8.56 124.10 7.62L124.10 7.62L124.10 7.53Q124.10 7.31 124.30 7.31L124.30 7.31L124.73 7.31Q124.94 7.31 124.94 7.53L124.94 7.53L124.94 10.71Q124.94 10.92 124.73 10.92L124.73 10.92L124.30 10.92Q124.10 10.92 124.10 10.71L124.10 10.71L124.10 10.62Q124.05 9.68 122.77 9.68L122.77 9.68L121.54 9.68L121.54 12.47Q121.54 13.75 122.49 13.80L122.49 13.80L122.58 13.80Q122.79 13.80 122.79 14.01L122.79 14.01L122.79 14.43Q122.79 14.64 122.58 14.64L122.58 14.64L118.28 14.64Q118.07 14.64 118.07 14.43L118.07 14.43L118.07 14.01Q118.07 13.80 118.28 13.80L118.28 13.80L118.36 13.80Q119.31 13.75 119.31 12.47L119.31 12.47L119.31 6.32Q119.31 4.98 118.29 4.98L118.29 4.98L118.28 4.98Q118.06 4.98 118.06 4.78ZM126.66 11.07L126.66 11.07Q126.66 10.01 127.22 9.11Q127.78 8.20 128.75 7.77L128.75 7.77Q129.42 7.47 130.17 7.47L130.17 7.47Q131.23 7.47 132.15 8.07Q133.07 8.66 133.53 9.69L133.53 9.69Q133.85 10.41 133.85 11.22L133.85 11.22Q133.85 12.28 133.29 13.17Q132.73 14.07 131.76 14.51L131.76 14.51Q131.07 14.81 130.33 14.81L130.33 14.81Q129.27 14.81 128.35 14.22Q127.44 13.62 126.98 12.60L126.98 12.60Q126.66 11.87 126.66 11.07ZM128.33 10.19L128.33 10.19Q128.33 10.96 128.72 11.83L128.72 11.83Q129.08 12.63 129.62 13.16Q130.16 13.69 130.77 13.69L130.77 13.69Q131.04 13.69 131.33 13.57L131.33 13.57Q132.18 13.20 132.18 12.09L132.18 12.09Q132.18 11.33 131.79 10.46L131.79 10.46Q131.43 9.65 130.88 9.12Q130.34 8.59 129.73 8.59L129.73 8.59Q129.46 8.59 129.17 8.72L129.17 8.72Q128.33 9.08 128.33 10.19ZM134.00 8.28L134.00 8.28L134.00 7.85Q134.00 7.65 134.22 7.65L134.22 7.65L134.25 7.64L137.07 7.64Q137.27 7.64 137.27 7.85L137.27 7.85L137.27 11.93Q137.27 11.97 137.27 12.04L137.27 12.04Q137.27 12.26 137.27 12.37Q137.27 12.48 137.29 12.67Q137.31 12.87 137.35 12.97Q137.38 13.07 137.46 13.21Q137.53 13.34 137.64 13.42Q137.74 13.49 137.91 13.54Q138.07 13.59 138.28 13.59L138.28 13.59Q138.79 13.59 139.30 13.22Q139.80 12.86 139.99 12.40L139.99 12.40L139.99 9.82Q139.99 9.22 139.72 8.85Q139.45 8.48 138.96 8.48L138.96 8.48L138.93 8.48Q138.72 8.48 138.72 8.28L138.72 8.28L138.72 7.85Q138.72 7.66 138.93 7.64L138.93 7.64L141.74 7.64Q141.96 7.64 141.96 7.85L141.96 7.85L141.96 11.81Q141.96 12.15 141.98 12.37Q142.00 12.60 142.08 12.85Q142.15 13.10 142.33 13.25Q142.51 13.39 142.78 13.42L142.78 13.42Q142.96 13.44 142.95 13.60L142.95 13.60L142.95 14.08Q142.95 14.26 142.74 14.26L142.74 14.26Q142.10 14.26 141.58 14.35Q141.06 14.44 140.83 14.53Q140.61 14.61 140.17 14.80L140.17 14.80Q140.12 14.83 140.05 14.83L140.05 14.83L140.02 14.83Q140 14.83 140 14.78L140 14.78L140.22 13.02Q140.06 13.34 139.84 13.63Q139.61 13.93 139.30 14.21Q138.98 14.49 138.56 14.66Q138.15 14.83 137.69 14.83L137.69 14.83Q137.11 14.83 136.67 14.67Q136.24 14.51 135.98 14.27Q135.73 14.02 135.57 13.65Q135.42 13.29 135.37 12.93Q135.31 12.56 135.31 12.13L135.31 12.13L135.31 9.82Q135.31 9.22 135.04 8.85Q134.78 8.48 134.28 8.48L134.28 8.48L134.22 8.48Q134.00 8.48 134.00 8.28ZM143.46 14.43L143.46 14.43L143.46 14.01Q143.46 13.80 143.66 13.80L143.66 13.80L143.70 13.80Q144.19 13.80 144.45 13.43Q144.72 13.06 144.72 12.47L144.72 12.47L144.72 10.71Q144.72 10.37 144.69 10.14Q144.67 9.92 144.59 9.67Q144.52 9.41 144.34 9.27Q144.16 9.13 143.89 9.10L143.89 9.10Q143.71 9.08 143.73 8.92L143.73 8.92L143.73 8.44Q143.73 8.29 143.92 8.26L143.92 8.26Q144.82 8.11 145.58 7.81Q146.34 7.50 146.70 7.24L146.70 7.24Q146.75 7.21 146.76 7.21L146.76 7.21L146.79 7.21Q146.81 7.21 146.81 7.23L146.81 7.23L146.56 9.06Q147.57 7.46 148.98 7.46L148.98 7.46Q149.56 7.46 150.00 7.62Q150.43 7.77 150.69 8.02Q150.94 8.27 151.10 8.64Q151.25 9.00 151.31 9.37Q151.36 9.73 151.36 10.17L151.36 10.17L151.36 12.47Q151.36 13.06 151.63 13.43Q151.89 13.80 152.39 13.80L152.39 13.80L152.46 13.80Q152.67 13.80 152.67 14.01L152.67 14.01L152.67 14.43Q152.67 14.64 152.46 14.64L152.46 14.64L148.65 14.64Q148.44 14.64 148.44 14.43L148.44 14.43L148.44 14.01Q148.44 13.80 148.66 13.80L148.66 13.80Q149.04 13.81 149.23 13.44L149.23 13.44Q149.40 13.10 149.40 12.55L149.40 12.55Q149.40 12.51 149.40 12.47L149.40 12.47L149.40 10.36Q149.40 10.32 149.40 10.25L149.40 10.25Q149.40 10.04 149.40 9.92Q149.40 9.81 149.38 9.62Q149.36 9.43 149.32 9.32Q149.29 9.21 149.21 9.08Q149.14 8.94 149.03 8.87Q148.93 8.80 148.76 8.75Q148.60 8.70 148.39 8.70L148.39 8.70Q147.88 8.70 147.38 9.06Q146.87 9.43 146.69 9.89L146.69 9.89L146.69 12.47Q146.69 13.06 146.95 13.43Q147.22 13.80 147.71 13.80L147.71 13.80L147.75 13.80Q147.95 13.80 147.95 14.01L147.95 14.01L147.95 14.43Q147.95 14.64 147.74 14.64L147.74 14.64L143.66 14.64Q143.46 14.64 143.46 14.43ZM152.67 11.13L152.67 11.13Q152.67 10.19 152.94 9.47Q153.21 8.75 153.68 8.32Q154.14 7.90 154.72 7.68Q155.29 7.46 155.95 7.46L155.95 7.46Q157.01 7.46 157.77 8.11L157.77 8.11L157.77 7.23Q157.77 6.88 157.74 6.66Q157.72 6.43 157.64 6.18Q157.56 5.93 157.38 5.78Q157.21 5.64 156.93 5.61L156.93 5.61Q156.75 5.59 156.77 5.43L156.77 5.43L156.77 4.96Q156.77 4.87 156.81 4.84Q156.86 4.81 156.97 4.77L156.97 4.77Q158.53 4.25 159.61 3.47L159.61 3.47Q159.65 3.45 159.67 3.45L159.67 3.45L159.70 3.45Q159.71 3.45 159.71 3.47L159.71 3.47L159.71 12.05Q159.72 12.34 159.76 12.54Q159.79 12.75 159.88 12.95Q159.96 13.15 160.13 13.27Q160.30 13.39 160.54 13.42L160.54 13.42Q160.72 13.44 160.71 13.60L160.71 13.60L160.71 14.08Q160.71 14.26 160.51 14.26L160.51 14.26Q159.87 14.26 159.35 14.35Q158.83 14.44 158.60 14.53Q158.37 14.61 157.93 14.80L157.93 14.80Q157.88 14.83 157.81 14.83L157.81 14.83L157.77 14.83Q157.75 14.83 157.76 14.78L157.76 14.78L157.92 13.54Q157.84 13.72 157.71 13.90Q157.58 14.09 157.34 14.31Q157.10 14.54 156.69 14.68Q156.28 14.83 155.78 14.83L155.78 14.83Q155.38 14.83 154.97 14.71Q154.55 14.59 154.14 14.30Q153.72 14.01 153.40 13.60Q153.08 13.19 152.88 12.55Q152.67 11.91 152.67 11.13ZM154.48 10.68L154.48 10.68Q154.48 12.01 155.01 12.80Q155.54 13.59 156.41 13.59L156.41 13.59Q156.71 13.59 156.95 13.47Q157.19 13.34 157.34 13.17Q157.48 13.00 157.58 12.83Q157.68 12.65 157.73 12.53L157.73 12.53L157.76 12.41L157.76 10.11Q157.68 9.42 157.27 8.98Q156.87 8.53 156.20 8.53L156.20 8.53Q154.48 8.53 154.48 10.68ZM161.01 11.13L161.01 11.13Q161.01 10.19 161.28 9.47Q161.55 8.75 162.02 8.32Q162.48 7.90 163.06 7.68Q163.63 7.46 164.29 7.46L164.29 7.46Q165.66 7.46 166.56 8.28L166.56 8.28Q166.72 8.21 166.86 8.15Q167.00 8.08 167.13 8.01Q167.25 7.94 167.34 7.90Q167.42 7.85 167.53 7.78Q167.64 7.71 167.68 7.69Q167.71 7.66 167.82 7.58Q167.93 7.50 167.95 7.49L167.95 7.49Q167.99 7.46 168.01 7.46L168.01 7.46L168.04 7.46Q168.05 7.46 168.05 7.49L168.05 7.49L168.05 12.05Q168.06 12.34 168.10 12.54Q168.13 12.75 168.22 12.95Q168.30 13.15 168.47 13.27Q168.64 13.39 168.88 13.42L168.88 13.42Q169.06 13.44 169.05 13.60L169.05 13.60L169.05 14.08Q169.05 14.26 168.84 14.26L168.84 14.26Q168.20 14.26 167.68 14.35Q167.17 14.44 166.92 14.53Q166.68 14.62 166.26 14.80L166.26 14.80Q166.21 14.83 166.15 14.83L166.15 14.83L166.11 14.83Q166.09 14.83 166.09 14.78L166.09 14.78L166.26 13.54Q166.18 13.72 166.05 13.90Q165.92 14.09 165.68 14.31Q165.44 14.54 165.03 14.68Q164.62 14.83 164.12 14.83L164.12 14.83Q163.72 14.83 163.31 14.71Q162.89 14.59 162.48 14.30Q162.06 14.01 161.74 13.60Q161.42 13.19 161.22 12.55Q161.01 11.91 161.01 11.13ZM162.82 10.68L162.82 10.68Q162.82 12.01 163.35 12.80Q163.88 13.59 164.75 13.59L164.75 13.59Q165.05 13.59 165.29 13.49Q165.53 13.40 165.68 13.27Q165.82 13.13 165.92 13.00Q166.02 12.86 166.07 12.76L166.07 12.76L166.10 12.67L166.10 9.86Q166.05 9.61 165.96 9.39Q165.87 9.16 165.70 8.92Q165.53 8.68 165.23 8.54Q164.93 8.39 164.54 8.39Q164.15 8.39 163.84 8.52Q163.54 8.65 163.35 8.87Q163.16 9.08 163.04 9.38Q162.91 9.68 162.87 9.99Q162.82 10.31 162.82 10.68ZM169.23 8.27L169.23 8.27L169.23 7.85Q169.23 7.64 169.44 7.64L169.44 7.64L170.45 7.64L170.45 6.71Q170.45 6.53 170.58 6.45L170.58 6.45Q171.55 5.93 172.30 5.30L172.30 5.30Q172.33 5.26 172.36 5.26L172.36 5.26L172.38 5.26Q172.42 5.26 172.42 5.28L172.42 5.28L172.42 7.64L174.29 7.64Q174.50 7.64 174.50 7.85L174.50 7.85L174.50 8.46Q174.50 8.67 174.29 8.67L174.29 8.67L172.42 8.67L172.42 12.67Q172.42 13.62 173.00 13.62L173.00 13.62Q173.36 13.62 174.00 13.22L174.00 13.22L174.02 13.21Q174.08 13.17 174.14 13.17L174.14 13.17Q174.23 13.17 174.30 13.28L174.30 13.28L174.53 13.63Q174.57 13.69 174.57 13.75L174.57 13.75Q174.57 13.84 174.46 13.92L174.46 13.92L174.04 14.18Q173.01 14.82 172.08 14.82L172.08 14.82Q171.74 14.82 171.46 14.71Q171.18 14.61 170.95 14.37Q170.71 14.13 170.58 13.70Q170.45 13.27 170.45 12.67L170.45 12.67L170.45 10.08Q170.45 9.86 170.45 9.74Q170.45 9.63 170.43 9.43Q170.41 9.24 170.38 9.13Q170.34 9.02 170.27 8.88Q170.19 8.74 170.09 8.66Q169.98 8.59 169.82 8.54Q169.65 8.48 169.44 8.48Q169.23 8.48 169.23 8.27ZM175.12 14.43L175.12 14.43L175.12 14.01Q175.12 13.80 175.33 13.80L175.33 13.80L175.36 13.80Q175.85 13.79 176.12 13.43L176.12 13.43Q176.37 13.07 176.37 12.52L176.37 12.52Q176.37 12.50 176.37 12.47L176.37 12.47L176.37 10.99Q176.37 10.70 176.35 10.49Q176.33 10.29 176.25 10.05Q176.18 9.81 176.00 9.67Q175.82 9.53 175.55 9.50L175.55 9.50Q175.37 9.48 175.38 9.32L175.38 9.32L175.38 8.85Q175.38 8.76 175.43 8.73Q175.47 8.70 175.58 8.66L175.58 8.66Q177.38 8.06 178.16 7.24L178.16 7.24Q178.19 7.21 178.22 7.21L178.22 7.21L178.25 7.21Q178.27 7.21 178.28 7.23L178.28 7.23L178.28 12.47Q178.28 13.06 178.55 13.43Q178.81 13.80 179.31 13.80L179.31 13.80L179.35 13.80Q179.56 13.80 179.56 14.01L179.56 14.01L179.56 14.43Q179.56 14.53 179.49 14.59Q179.42 14.64 179.32 14.64L179.32 14.64L175.36 14.64Q175.26 14.64 175.19 14.59Q175.12 14.53 175.12 14.43ZM176.25 5.33L176.25 5.33Q176.25 4.98 176.60 4.63Q176.95 4.29 177.30 4.29L177.30 4.29Q177.65 4.29 178.00 4.63L178.00 4.63Q178.36 4.99 178.36 5.33L178.36 5.33Q178.36 5.68 178.00 6.04L178.00 6.04Q177.65 6.38 177.30 6.38L177.30 6.38Q176.95 6.38 176.60 6.04Q176.25 5.69 176.25 5.33ZM179.87 11.07L179.87 11.07Q179.87 10.01 180.43 9.11Q180.99 8.20 181.96 7.77L181.96 7.77Q182.63 7.47 183.37 7.47L183.37 7.47Q184.43 7.47 185.35 8.07Q186.27 8.66 186.73 9.69L186.73 9.69Q187.06 10.41 187.06 11.22L187.06 11.22Q187.06 12.28 186.50 13.17Q185.94 14.07 184.96 14.51L184.96 14.51Q184.27 14.81 183.54 14.81L183.54 14.81Q182.48 14.81 181.56 14.22Q180.64 13.62 180.19 12.60L180.19 12.60Q179.87 11.87 179.87 11.07ZM181.54 10.19L181.54 10.19Q181.54 10.96 181.92 11.83L181.92 11.83Q182.29 12.63 182.83 13.16Q183.37 13.69 183.98 13.69L183.98 13.69Q184.25 13.69 184.54 13.57L184.54 13.57Q185.38 13.20 185.38 12.09L185.38 12.09Q185.38 11.33 184.99 10.46L184.99 10.46Q184.63 9.65 184.09 9.12Q183.54 8.59 182.94 8.59L182.94 8.59Q182.66 8.59 182.38 8.72L182.38 8.72Q181.54 9.08 181.54 10.19ZM187.55 14.43L187.55 14.43L187.55 14.01Q187.55 13.80 187.76 13.80L187.76 13.80L187.79 13.80Q188.28 13.80 188.55 13.43Q188.81 13.06 188.81 12.47L188.81 12.47L188.81 10.71Q188.81 10.37 188.78 10.14Q188.76 9.92 188.69 9.67Q188.61 9.41 188.43 9.27Q188.25 9.13 187.98 9.10L187.98 9.10Q187.80 9.08 187.82 8.92L187.82 8.92L187.82 8.44Q187.82 8.29 188.02 8.26L188.02 8.26Q188.91 8.11 189.67 7.81Q190.43 7.50 190.79 7.24L190.79 7.24Q190.84 7.21 190.85 7.21L190.85 7.21L190.89 7.21Q190.90 7.21 190.90 7.23L190.90 7.23L190.65 9.06Q191.66 7.46 193.07 7.46L193.07 7.46Q193.66 7.46 194.09 7.62Q194.52 7.77 194.78 8.02Q195.04 8.27 195.19 8.64Q195.34 9.00 195.40 9.37Q195.45 9.73 195.45 10.17L195.45 10.17L195.45 12.47Q195.45 13.06 195.72 13.43Q195.99 13.80 196.49 13.80L196.49 13.80L196.55 13.80Q196.76 13.80 196.76 14.01L196.76 14.01L196.76 14.43Q196.76 14.64 196.55 14.64L196.55 14.64L192.75 14.64Q192.53 14.64 192.53 14.43L192.53 14.43L192.53 14.01Q192.53 13.80 192.75 13.80L192.75 13.80Q193.14 13.81 193.32 13.44L193.32 13.44Q193.49 13.10 193.49 12.55L193.49 12.55Q193.49 12.51 193.49 12.47L193.49 12.47L193.49 10.36Q193.49 10.32 193.49 10.25L193.49 10.25Q193.49 10.04 193.49 9.92Q193.49 9.81 193.47 9.62Q193.45 9.43 193.42 9.32Q193.38 9.21 193.31 9.08Q193.23 8.94 193.13 8.87Q193.02 8.80 192.86 8.75Q192.69 8.70 192.48 8.70L192.48 8.70Q191.97 8.70 191.47 9.06Q190.96 9.43 190.78 9.89L190.78 9.89L190.78 12.47Q190.78 13.06 191.04 13.43Q191.31 13.80 191.80 13.80L191.80 13.80L191.84 13.80Q192.04 13.80 192.04 14.01L192.04 14.01L192.04 14.43Q192.04 14.64 191.83 14.64L191.83 14.64L187.76 14.64Q187.55 14.64 187.55 14.43Z"></path></g><defs data-v-423bf9ae=""><linearGradient data-v-423bf9ae="" gradientTransform="rotate(25)" id="d8218ab8-5ae5-4928-9203-f25b7a8fddf5" x1="0%" y1="0%" x2="100%" y2="0%"><stop data-v-423bf9ae="" offset="0%" style="stop-color: rgb(23, 119, 117); stop-opacity: 1;"></stop><stop data-v-423bf9ae="" offset="100%" style="stop-color: rgb(40, 210, 191); stop-opacity: 1;"></stop></linearGradient></defs><g data-v-423bf9ae="" id="17539b97-86b7-4d15-bc8a-6b99a3eb0d28" transform="matrix(4.0888315836588545,0,0,4.0888315836588545,0.6217758980485542,0.6650106953650265)" stroke="none" fill="url(#d8218ab8-5ae5-4928-9203-f25b7a8fddf5)"><path d="M503.048 361.415l-45.09-53.34a4.009 4.009 0 00-3.05-1.41h-12.97c-.22-2.09-.63-4.14-1.26-6.11-5.76-18.07-28.45-30.32-56.46-30.48-8.14-.05-16.33-2.55-23.67-7.24a61.54 61.54 0 00-10.07-5.19c-1.05-27.6-5.58-54.99-13.48-81.46a330.774 330.774 0 00-21.79-54.58c-8.17-16.14-23.01-26.93-39.76-30.39 1.23-10.66.39-21.87-2.5-32.65-10.71-40.03-46.57-65.55-79.95-56.87-14.14 3.68-26.31 13.22-34.25 26.85-10.17 17.46-12.68 39.89-6.89 61.55 2.68 10.01 7.07 19.48 12.81 27.73l-34.44 10.61c-8.57 2.64-15.55 8.44-19.66 16.31-4.05 7.77-4.82 16.63-2.15 24.96 4.12 12.85 15.55 21.45 28.34 22.76l-39.35 92.12c-3.02 7.08-3.44 14.81-1.26 22.08h-47.06c-1.18 0-2.29.52-3.05 1.41l-45.09 53.34a3.995 3.995 0 003.05 6.58h496a3.995 3.995 0 003.05-6.58zm-317.73-74.82c-3.16 6.09-4.5 13.16-4.05 20.07h-20.99l32.38-75.81 21.81 34.04c-13.72 4.34-23.949 11.69-29.15 21.7zm159.79-22.46c3.82 1.34 7.54 3.15 11.14 5.44 2.35 1.51 4.79 2.82 7.29 3.93-2.91 4.45-6.4 8.44-10.43 11.9-9.02 7.72-18.74 11.03-25.3 12.46a4 4 0 00-3.06 4.76 3.993 3.993 0 004.75 3.06c10.71-2.33 20.67-7.24 28.81-14.21 5.1-4.36 9.44-9.47 12.95-15.2a50.26 50.26 0 0012.91 1.8c24.54.14 44.18 10.15 48.89 24.91 2.37 7.43.82 16.5-3.94 23.11-10.57 14.67-38.45 17.76-67.98 8.1 11.94-9.53 18.98-19.2 20.4-21.25 1.26-1.81.81-4.31-1-5.57s-4.31-.81-5.57 1c-2.71 3.91-27.72 38.14-68.88 38.29h-.26c-10.6 0-21.09-2.23-31.19-6.63-6.64-2.89-13.68-4.37-20.68-4.37-2.28 0-4.56.16-6.81.47-25.07 3.51-47.06-3.91-54.74-18.45-3.6-6.83-4.16-15.7-1.7-23.27 11.24 6.97 22.67 10.79 34.04 11.35 9.7.48 17.53-1.38 25.11-3.18 9.44-2.24 17.6-4.18 28.17-1.39 5.89 1.55 11.49 4.32 16.65 8.21.72.55 1.57.81 2.41.81a4 4 0 002.41-7.19c-5.99-4.53-12.53-7.74-19.42-9.56-12.52-3.31-22.46-.95-32.07 1.34-7.03 1.67-14.3 3.39-22.87 2.97-10.2-.5-20.56-4.05-30.84-10.55 11.6-16.4 43.42-22.93 81.15-16.26 10.36 1.84 21.02.29 30.85-4.47 7.09-3.43 14.59-5.17 22.28-5.17h.07c5.64.01 11.12.95 16.39 2.79.021.01.051.01.07.02zm-185.519-176.1c-5.25-19.62-3.03-39.83 6.07-55.46 6.86-11.78 17.29-20 29.36-23.13 29.13-7.58 60.63 15.39 70.2 51.19 2.62 9.76 3.39 19.88 2.3 29.51-6.93-.45-14.04.32-21.04 2.48l-73.72 22.71c-5.961-7.96-10.501-17.33-13.17-27.3zm-43.55 79.22c-2.01-6.27-1.44-12.95 1.62-18.8 3.11-5.97 8.42-10.37 14.93-12.37l116.25-35.82c23.36-7.19 48.27 3.3 59.24 24.95a322.82 322.82 0 0121.25 53.26 320.737 320.737 0 0113.04 76.54 58.15 58.15 0 00-13.71-1.69h-.08c-8.91 0-17.58 2.01-25.76 5.97-.63.3-1.26.59-1.89.86l-61.95-96.69 54.6-16.99a4 4 0 002.63-5.01 4 4 0 00-5.01-2.63l-143.44 44.65c-13.3 4.14-27.53-3.14-31.72-16.23zm-11.27 120.48l40.81-95.54c1.52-.25 3.05-.6 4.56-1.08l80.92-25.18 62.01 96.77c-5.37 1.19-10.85 1.34-16.22.39-20.37-3.61-38.97-3.58-54.24-.34l-26.15-40.79 7.01-16.4c.87-2.03-.08-4.38-2.11-5.25-2.03-.87-4.38.08-5.25 2.11l-44.68 104.58c-5.41 12.68-20.29 18.64-33.17 13.3-6.27-2.61-11.12-7.46-13.65-13.68-2.491-6.11-2.44-12.82.16-18.89z"></path></g><!----><g data-v-423bf9ae="" id="9e0b555c-ab5e-499b-a736-e4e55270ee5d" fill="#000000" transform="matrix(1.5742788478432197,0,0,1.5742788478432197,2079.9445419222848,54.03348280677637)"><path d="M6.34 9.32L6.34 9.72C6.34 9.76 6.37 9.80 6.40 9.83C6.43 9.86 6.47 9.87 6.52 9.87L8.43 9.87L8.43 12.54C8.20 12.67 7.98 12.78 7.77 12.88C7.56 12.98 7.32 13.08 7.08 13.15C6.85 13.22 6.58 13.27 6.30 13.30C6.02 13.33 5.71 13.34 5.38 13.34C4.76 13.34 4.20 13.24 3.70 13.03C3.19 12.82 2.76 12.53 2.39 12.15C2.03 11.77 1.75 11.30 1.55 10.74C1.36 10.18 1.25 9.56 1.25 8.86C1.25 8.18 1.36 7.56 1.55 7.01C1.75 6.47 2.03 5.99 2.39 5.61C2.76 5.24 3.21 4.94 3.72 4.73C4.24 4.52 4.82 4.42 5.46 4.42C6.64 4.42 7.57 4.58 8.26 4.90C8.30 5.81 8.33 6.31 8.33 6.41C8.34 6.64 8.44 6.75 8.64 6.75L8.97 6.75L8.97 4.51C8.54 4.31 7.98 4.14 7.28 4.00C6.58 3.86 5.99 3.81 5.49 3.81C4.73 3.81 4.05 3.92 3.43 4.16C2.81 4.40 2.30 4.75 1.86 5.18C1.43 5.61 1.11 6.15 0.87 6.78C0.63 7.39 0.52 8.09 0.52 8.86C0.52 9.63 0.63 10.32 0.87 10.95C1.11 11.58 1.43 12.10 1.85 12.54C2.27 12.99 2.79 13.33 3.37 13.57C3.96 13.80 4.61 13.93 5.32 13.93C5.74 13.93 6.12 13.90 6.47 13.86C6.82 13.80 7.14 13.73 7.45 13.65C7.76 13.55 8.04 13.44 8.30 13.30C8.57 13.16 8.82 13.01 9.07 12.84L9.07 9.32ZM20.29 4.44C20.47 4.42 20.55 4.34 20.55 4.19L20.55 3.91L19.38 3.91L18.66 3.91L17.47 3.91L17.47 4.19C17.47 4.34 17.57 4.42 17.75 4.44L17.89 4.44C17.96 4.44 18.06 4.45 18.20 4.45C18.34 4.45 18.49 4.47 18.66 4.47L18.66 13.26C18.49 13.26 18.34 13.27 18.20 13.27C18.06 13.27 17.96 13.29 17.89 13.29L17.75 13.29C17.57 13.30 17.47 13.38 17.47 13.54L17.47 13.82L18.66 13.82L19.38 13.82L20.55 13.82L20.55 13.54C20.55 13.38 20.47 13.30 20.29 13.29L20.15 13.29C20.08 13.29 19.98 13.27 19.84 13.27C19.70 13.27 19.54 13.26 19.38 13.26L19.38 4.47C19.54 4.47 19.70 4.45 19.84 4.45C19.98 4.45 20.08 4.44 20.15 4.44ZM37.94 3.92L37.38 3.92L37.35 3.92L35.88 3.92L35.88 4.19C35.88 4.34 35.97 4.42 36.15 4.44L36.27 4.44C36.33 4.44 36.41 4.45 36.54 4.45C36.67 4.45 36.81 4.47 36.96 4.47L33.75 12.32C33.67 12.53 33.60 12.75 33.54 13.01C33.49 12.77 33.42 12.53 33.33 12.32L30.10 4.47C30.25 4.47 30.41 4.45 30.53 4.45C30.66 4.45 30.74 4.44 30.80 4.44L30.91 4.44C31.09 4.42 31.19 4.34 31.19 4.19L31.19 3.92L29.69 3.92L29.13 3.92L28.53 3.92L28.53 4.19C28.53 4.34 28.63 4.42 28.81 4.44L28.91 4.44C28.95 4.44 29.02 4.45 29.09 4.45C29.16 4.45 29.26 4.47 29.36 4.47L33.22 13.82L33.85 13.82L37.72 4.47C37.81 4.47 37.91 4.45 37.98 4.45C38.05 4.45 38.12 4.44 38.16 4.44L38.25 4.44C38.43 4.42 38.53 4.34 38.53 4.19L38.53 3.92ZM49.39 4.44C49.57 4.42 49.66 4.34 49.66 4.19L49.66 3.91L48.48 3.91L47.77 3.91L46.58 3.91L46.58 4.19C46.58 4.34 46.68 4.42 46.86 4.44L47.00 4.44C47.07 4.44 47.17 4.45 47.31 4.45C47.45 4.45 47.60 4.47 47.77 4.47L47.77 13.26C47.60 13.26 47.45 13.27 47.31 13.27C47.17 13.27 47.07 13.29 47.00 13.29L46.86 13.29C46.68 13.30 46.58 13.38 46.58 13.54L46.58 13.82L47.77 13.82L48.48 13.82L49.66 13.82L49.66 13.54C49.66 13.38 49.57 13.30 49.39 13.29L49.25 13.29C49.18 13.29 49.08 13.27 48.94 13.27C48.80 13.27 48.65 13.26 48.48 13.26L48.48 4.47C48.65 4.47 48.80 4.45 48.94 4.45C49.08 4.45 49.18 4.44 49.25 4.44ZM66.84 3.92L66.21 3.92L64.99 3.92L64.99 4.19C64.99 4.34 65.09 4.42 65.27 4.44L65.41 4.44C65.48 4.44 65.59 4.45 65.73 4.45C65.87 4.45 66.04 4.47 66.21 4.47L66.21 12.22C66.21 12.35 66.21 12.49 66.22 12.63L59.81 4.05C59.77 3.99 59.74 3.95 59.70 3.93C59.65 3.92 59.61 3.91 59.54 3.91L59.19 3.91L58.00 3.91L58.00 4.19C58.00 4.34 58.10 4.42 58.28 4.44L58.42 4.44C58.49 4.44 58.59 4.45 58.73 4.45C58.87 4.45 59.02 4.47 59.19 4.47L59.19 13.26C59.02 13.26 58.87 13.27 58.73 13.27C58.59 13.27 58.49 13.29 58.42 13.29L58.28 13.29C58.10 13.30 58.00 13.38 58.00 13.54L58.00 13.82L59.19 13.82L59.81 13.82L61.03 13.82L61.03 13.54C61.03 13.38 60.93 13.30 60.75 13.29L60.61 13.29C60.54 13.29 60.41 13.27 60.27 13.27C60.13 13.27 59.98 13.26 59.81 13.26L59.81 5.49C59.81 5.36 59.81 5.22 59.79 5.08L66.23 13.68C66.30 13.78 66.37 13.82 66.49 13.82L66.84 13.82L66.84 4.47C67.00 4.47 67.14 4.45 67.28 4.45C67.42 4.45 67.54 4.44 67.61 4.44L67.73 4.44C67.91 4.42 68.01 4.34 68.01 4.19L68.01 3.92ZM81.69 9.32L81.69 9.72C81.69 9.76 81.72 9.80 81.75 9.83C81.77 9.86 81.82 9.87 81.87 9.87L83.78 9.87L83.78 12.54C83.55 12.67 83.33 12.78 83.12 12.88C82.91 12.98 82.67 13.08 82.43 13.15C82.19 13.22 81.93 13.27 81.65 13.30C81.37 13.33 81.06 13.34 80.72 13.34C80.11 13.34 79.55 13.24 79.04 13.03C78.54 12.82 78.11 12.53 77.74 12.15C77.38 11.77 77.10 11.30 76.90 10.74C76.71 10.18 76.59 9.56 76.59 8.86C76.59 8.18 76.71 7.56 76.90 7.01C77.10 6.47 77.38 5.99 77.74 5.61C78.11 5.24 78.55 4.94 79.07 4.73C79.59 4.52 80.16 4.42 80.81 4.42C81.98 4.42 82.92 4.58 83.61 4.90C83.65 5.81 83.68 6.31 83.68 6.41C83.69 6.64 83.79 6.75 83.99 6.75L84.32 6.75L84.32 4.51C83.89 4.31 83.33 4.14 82.63 4.00C81.93 3.86 81.34 3.81 80.84 3.81C80.08 3.81 79.39 3.92 78.78 4.16C78.16 4.40 77.64 4.75 77.21 5.18C76.78 5.61 76.45 6.15 76.22 6.78C75.98 7.39 75.87 8.09 75.87 8.86C75.87 9.63 75.98 10.32 76.22 10.95C76.45 11.58 76.78 12.10 77.20 12.54C77.62 12.99 78.13 13.33 78.72 13.57C79.31 13.80 79.95 13.93 80.67 13.93C81.09 13.93 81.47 13.90 81.82 13.86C82.17 13.80 82.49 13.73 82.80 13.65C83.10 13.55 83.38 13.44 83.65 13.30C83.92 13.16 84.17 13.01 84.42 12.84L84.42 9.32ZM112.92 4.44C113.11 4.42 113.20 4.34 113.20 4.19L113.20 3.92L112.03 3.92L111.30 3.92L110.12 3.92L110.12 4.19C110.12 4.34 110.22 4.42 110.40 4.44L110.53 4.44C110.60 4.44 110.71 4.45 110.85 4.45C110.99 4.45 111.13 4.47 111.30 4.47L111.30 8.53L105.10 8.53L105.10 4.47C105.27 4.47 105.42 4.45 105.56 4.45C105.70 4.45 105.80 4.44 105.87 4.44L106.01 4.44C106.19 4.42 106.27 4.34 106.27 4.19L106.27 3.92L105.10 3.92L104.38 3.92L103.19 3.92L103.19 4.19C103.19 4.34 103.29 4.42 103.47 4.44L103.61 4.44C103.68 4.44 103.78 4.45 103.92 4.45C104.06 4.45 104.22 4.47 104.38 4.47L104.38 13.26C104.22 13.26 104.06 13.27 103.92 13.27C103.78 13.27 103.68 13.29 103.61 13.29L103.47 13.29C103.29 13.30 103.19 13.38 103.19 13.54L103.19 13.82L104.38 13.82L105.10 13.82L106.27 13.82L106.27 13.54C106.27 13.38 106.19 13.30 106.01 13.29L105.87 13.29C105.80 13.29 105.70 13.27 105.56 13.27C105.42 13.27 105.27 13.26 105.10 13.26L105.10 9.07L111.30 9.07L111.30 13.26C111.13 13.26 110.99 13.27 110.85 13.27C110.71 13.27 110.60 13.29 110.53 13.29L110.40 13.29C110.22 13.30 110.12 13.38 110.12 13.54L110.12 13.82L111.30 13.82L112.03 13.82L113.20 13.82L113.20 13.54C113.20 13.38 113.11 13.30 112.92 13.29L112.80 13.29C112.73 13.29 112.62 13.27 112.48 13.27C112.34 13.27 112.20 13.26 112.03 13.26L112.03 4.47C112.20 4.47 112.34 4.45 112.48 4.45C112.62 4.45 112.73 4.44 112.80 4.44ZM130.82 8.86C130.82 8.11 130.69 7.41 130.47 6.79C130.24 6.17 129.92 5.64 129.50 5.19C129.08 4.75 128.59 4.40 128.02 4.16C127.44 3.92 126.78 3.79 126.08 3.79C125.38 3.79 124.75 3.92 124.18 4.16C123.61 4.40 123.10 4.75 122.68 5.19C122.26 5.64 121.94 6.17 121.72 6.79C121.49 7.41 121.37 8.11 121.37 8.86C121.37 9.63 121.49 10.33 121.72 10.95C121.94 11.56 122.26 12.10 122.68 12.54C123.10 12.99 123.61 13.33 124.18 13.57C124.75 13.80 125.38 13.93 126.08 13.93C126.78 13.93 127.44 13.80 128.02 13.57C128.59 13.33 129.08 12.99 129.50 12.54C129.92 12.10 130.24 11.56 130.47 10.95C130.69 10.33 130.82 9.63 130.82 8.86ZM130.06 8.86C130.06 9.56 129.98 10.18 129.78 10.72C129.58 11.27 129.32 11.75 128.97 12.12C128.62 12.50 128.20 12.81 127.71 13.01C127.22 13.20 126.69 13.30 126.08 13.30C125.50 13.30 124.96 13.20 124.47 13.01C123.98 12.81 123.56 12.50 123.21 12.12C122.86 11.75 122.58 11.27 122.39 10.72C122.19 10.18 122.11 9.56 122.11 8.86C122.11 8.18 122.19 7.55 122.39 7.00C122.58 6.45 122.86 5.98 123.21 5.60C123.56 5.22 123.98 4.91 124.47 4.72C124.96 4.52 125.50 4.41 126.08 4.41C126.69 4.41 127.22 4.52 127.71 4.72C128.20 4.91 128.62 5.22 128.97 5.60C129.32 5.98 129.58 6.45 129.78 7.00C129.98 7.55 130.06 8.18 130.06 8.86ZM145.32 4.68C144.73 4.17 143.85 3.92 142.69 3.92L140.28 3.92L139.09 3.92L139.09 4.19C139.09 4.34 139.19 4.42 139.37 4.44L139.51 4.44C139.58 4.44 139.68 4.45 139.82 4.45C139.96 4.45 140.11 4.47 140.28 4.47L140.28 13.26C140.11 13.26 139.96 13.27 139.82 13.27C139.68 13.27 139.58 13.29 139.51 13.29L139.37 13.29C139.19 13.30 139.09 13.38 139.09 13.54L139.09 13.82L140.28 13.82L140.99 13.82L142.17 13.82L142.17 13.54C142.17 13.38 142.07 13.30 141.89 13.29L141.76 13.29C141.69 13.29 141.58 13.27 141.44 13.27C141.30 13.27 141.16 13.26 140.99 13.26L140.99 9.83L142.69 9.83C143.23 9.83 143.72 9.74 144.16 9.60C144.59 9.45 144.96 9.25 145.26 8.99C145.57 8.72 145.81 8.41 145.96 8.05C146.13 7.69 146.20 7.29 146.20 6.86C146.20 5.92 145.91 5.18 145.32 4.68ZM145.29 7.81C145.17 8.11 144.98 8.36 144.75 8.57C144.51 8.78 144.21 8.95 143.86 9.07C143.51 9.20 143.12 9.25 142.69 9.25L140.99 9.25L140.99 4.48L142.69 4.48C143.61 4.48 144.31 4.69 144.79 5.10C145.25 5.50 145.49 6.09 145.49 6.85C145.49 7.20 145.42 7.52 145.29 7.81ZM155.58 3.92L154.39 3.92L154.39 4.19C154.39 4.34 154.49 4.42 154.67 4.44L154.81 4.44C154.88 4.44 154.98 4.45 155.12 4.45C155.26 4.45 155.41 4.47 155.58 4.47L155.58 13.26C155.41 13.26 155.26 13.27 155.12 13.27C154.98 13.27 154.88 13.29 154.81 13.29L154.67 13.29C154.49 13.30 154.41 13.38 154.41 13.54L154.41 13.82L155.58 13.82L161.52 13.82L161.52 13.22L161.52 11.76L161.17 11.76C160.97 11.76 160.89 11.89 160.87 12.11C160.87 12.14 160.86 12.19 160.86 12.29C160.86 12.39 160.86 12.53 160.85 12.74C160.83 12.95 160.82 13.09 160.82 13.22L156.30 13.22L156.30 9.09L160.24 9.09L160.24 8.51L156.30 8.51L156.30 4.51L160.82 4.51C160.85 5.12 160.87 5.50 160.87 5.63C160.89 5.85 160.97 5.96 161.17 5.96L161.52 5.96L161.52 4.51L161.52 3.92ZM187.99 3.92L187.80 3.92L180.50 3.92L180.29 3.92L180.19 3.92L180.19 5.96L180.54 5.96C180.74 5.96 180.82 5.85 180.84 5.63C180.84 5.53 180.87 5.17 180.89 4.52L183.79 4.52L183.79 13.26C183.62 13.26 183.48 13.27 183.34 13.27C183.20 13.27 183.09 13.29 183.02 13.29L182.90 13.29C182.71 13.30 182.62 13.38 182.62 13.54L182.62 13.82L183.79 13.82L184.51 13.82L185.70 13.82L185.70 13.54C185.70 13.38 185.60 13.30 185.42 13.29L185.28 13.29C185.21 13.29 185.11 13.27 184.97 13.27C184.83 13.27 184.67 13.26 184.51 13.26L184.51 4.52L187.39 4.52C187.43 5.24 187.45 5.60 187.45 5.63C187.46 5.85 187.56 5.96 187.75 5.96L188.09 5.96L188.09 3.92ZM205.93 4.44C206.11 4.42 206.21 4.34 206.21 4.19L206.21 3.92L205.03 3.92L204.30 3.92L203.13 3.92L203.13 4.19C203.13 4.34 203.22 4.42 203.41 4.44L203.53 4.44C203.60 4.44 203.71 4.45 203.85 4.45C203.99 4.45 204.13 4.47 204.30 4.47L204.30 8.53L198.10 8.53L198.10 4.47C198.27 4.47 198.42 4.45 198.56 4.45C198.70 4.45 198.80 4.44 198.87 4.44L199.01 4.44C199.19 4.42 199.28 4.34 199.28 4.19L199.28 3.92L198.10 3.92L197.39 3.92L196.20 3.92L196.20 4.19C196.20 4.34 196.29 4.42 196.48 4.44L196.62 4.44C196.69 4.44 196.78 4.45 196.92 4.45C197.06 4.45 197.22 4.47 197.39 4.47L197.39 13.26C197.22 13.26 197.06 13.27 196.92 13.27C196.78 13.27 196.69 13.29 196.62 13.29L196.48 13.29C196.29 13.30 196.20 13.38 196.20 13.54L196.20 13.82L197.39 13.82L198.10 13.82L199.28 13.82L199.28 13.54C199.28 13.38 199.19 13.30 199.01 13.29L198.87 13.29C198.80 13.29 198.70 13.27 198.56 13.27C198.42 13.27 198.27 13.26 198.10 13.26L198.10 9.07L204.30 9.07L204.30 13.26C204.13 13.26 203.99 13.27 203.85 13.27C203.71 13.27 203.60 13.29 203.53 13.29L203.41 13.29C203.22 13.30 203.13 13.38 203.13 13.54L203.13 13.82L204.30 13.82L205.03 13.82L206.21 13.82L206.21 13.54C206.21 13.38 206.11 13.30 205.93 13.29L205.80 13.29C205.73 13.29 205.62 13.27 205.48 13.27C205.34 13.27 205.20 13.26 205.03 13.26L205.03 4.47C205.20 4.47 205.34 4.45 205.48 4.45C205.62 4.45 205.73 4.44 205.80 4.44ZM222.54 13.29L222.45 13.29L222.26 13.29C222.18 13.29 222.10 13.27 222.01 13.27L219.04 9.53C218.96 9.42 218.85 9.32 218.74 9.25C219.17 9.21 219.56 9.11 219.91 8.96C220.26 8.81 220.54 8.61 220.79 8.37C221.03 8.13 221.23 7.85 221.35 7.55C221.48 7.24 221.55 6.89 221.55 6.51C221.55 5.66 221.27 5.03 220.71 4.58C220.15 4.14 219.30 3.92 218.15 3.92L215.74 3.92L214.56 3.92L214.56 4.19C214.56 4.34 214.65 4.42 214.83 4.44L214.97 4.44C215.04 4.44 215.14 4.45 215.28 4.45C215.42 4.45 215.57 4.47 215.74 4.47L215.74 13.26C215.57 13.26 215.42 13.27 215.28 13.27C215.14 13.27 215.04 13.29 214.97 13.29L214.83 13.29C214.65 13.30 214.55 13.38 214.55 13.54L214.55 13.82L215.74 13.82L216.45 13.82L217.63 13.82L217.63 13.54C217.63 13.38 217.53 13.30 217.35 13.29L217.21 13.29C217.14 13.29 217.04 13.27 216.90 13.27C216.76 13.27 216.62 13.26 216.45 13.26L216.45 9.34L217.63 9.34C217.83 9.34 217.97 9.35 218.05 9.39C218.13 9.44 218.22 9.52 218.30 9.62L221.48 13.64C221.54 13.71 221.58 13.75 221.63 13.78C221.69 13.80 221.76 13.82 221.83 13.82L221.90 13.82L222.45 13.82L222.81 13.82L222.81 13.54C222.81 13.38 222.73 13.30 222.54 13.29ZM218.05 8.81L216.45 8.81L216.45 4.48L218.15 4.48C219.03 4.48 219.70 4.66 220.16 5.00C220.63 5.33 220.85 5.87 220.85 6.57C220.85 6.92 220.79 7.21 220.67 7.49C220.54 7.77 220.35 7.99 220.11 8.19C219.87 8.39 219.58 8.55 219.23 8.65C218.88 8.75 218.48 8.81 218.05 8.81ZM239.97 8.86C239.97 8.11 239.85 7.41 239.62 6.79C239.40 6.17 239.08 5.64 238.66 5.19C238.24 4.75 237.75 4.40 237.17 4.16C236.60 3.92 235.94 3.79 235.24 3.79C234.54 3.79 233.91 3.92 233.34 4.16C232.76 4.40 232.26 4.75 231.84 5.19C231.42 5.64 231.10 6.17 230.87 6.79C230.65 7.41 230.52 8.11 230.52 8.86C230.52 9.63 230.65 10.33 230.87 10.95C231.10 11.56 231.42 12.10 231.84 12.54C232.26 12.99 232.76 13.33 233.34 13.57C233.91 13.80 234.54 13.93 235.24 13.93C235.94 13.93 236.60 13.80 237.17 13.57C237.75 13.33 238.24 12.99 238.66 12.54C239.08 12.10 239.40 11.56 239.62 10.95C239.85 10.33 239.97 9.63 239.97 8.86ZM239.22 8.86C239.22 9.56 239.13 10.18 238.94 10.72C238.74 11.27 238.48 11.75 238.13 12.12C237.78 12.50 237.36 12.81 236.87 13.01C236.38 13.20 235.84 13.30 235.24 13.30C234.65 13.30 234.12 13.20 233.63 13.01C233.14 12.81 232.72 12.50 232.37 12.12C232.02 11.75 231.74 11.27 231.55 10.72C231.35 10.18 231.27 9.56 231.27 8.86C231.27 8.18 231.35 7.55 231.55 7.00C231.74 6.45 232.02 5.98 232.37 5.60C232.72 5.22 233.14 4.91 233.63 4.72C234.12 4.52 234.65 4.41 235.24 4.41C235.84 4.41 236.38 4.52 236.87 4.72C237.36 4.91 237.78 5.22 238.13 5.60C238.48 5.98 238.74 6.45 238.94 7.00C239.13 7.55 239.22 8.18 239.22 8.86ZM256.21 3.92L255.50 3.92L254.14 3.92L254.14 4.19C254.14 4.34 254.24 4.42 254.42 4.44L254.59 4.44C254.69 4.44 254.83 4.45 255.00 4.45C255.16 4.45 255.33 4.47 255.50 4.47L255.50 10.04C255.50 10.50 255.43 10.92 255.29 11.33C255.15 11.73 254.95 12.08 254.69 12.38C254.42 12.67 254.11 12.89 253.74 13.06C253.36 13.23 252.94 13.31 252.46 13.31C251.99 13.31 251.55 13.23 251.17 13.06C250.80 12.89 250.47 12.66 250.22 12.36C249.96 12.07 249.77 11.72 249.63 11.33C249.49 10.93 249.42 10.50 249.42 10.04L249.42 4.47C249.59 4.47 249.76 4.45 249.93 4.45C250.10 4.45 250.24 4.44 250.33 4.44L250.50 4.44C250.68 4.42 250.78 4.34 250.78 4.19L250.78 3.92L249.42 3.92L248.71 3.92L247.53 3.92L247.53 4.19C247.53 4.34 247.62 4.42 247.80 4.44L247.94 4.44C248.01 4.44 248.11 4.45 248.25 4.45C248.39 4.45 248.54 4.47 248.71 4.47L248.71 10.04C248.71 10.58 248.79 11.09 248.96 11.56C249.13 12.04 249.38 12.46 249.70 12.81C250.03 13.16 250.43 13.44 250.89 13.64C251.36 13.83 251.89 13.93 252.46 13.93C253.04 13.93 253.55 13.83 254.02 13.64C254.48 13.44 254.88 13.16 255.21 12.81C255.53 12.46 255.78 12.04 255.95 11.56C256.12 11.09 256.21 10.58 256.21 10.04L256.21 4.47C256.38 4.47 256.52 4.45 256.66 4.45C256.80 4.45 256.91 4.44 256.98 4.44L257.11 4.44C257.29 4.42 257.39 4.34 257.39 4.19L257.39 3.92ZM271.05 9.32L271.05 9.72C271.05 9.76 271.08 9.80 271.11 9.83C271.14 9.86 271.18 9.87 271.24 9.87L273.14 9.87L273.14 12.54C272.92 12.67 272.69 12.78 272.48 12.88C272.27 12.98 272.03 13.08 271.80 13.15C271.56 13.22 271.29 13.27 271.01 13.30C270.73 13.33 270.42 13.34 270.09 13.34C269.47 13.34 268.91 13.24 268.41 13.03C267.90 12.82 267.47 12.53 267.11 12.15C266.74 11.77 266.46 11.30 266.27 10.74C266.07 10.18 265.96 9.56 265.96 8.86C265.96 8.18 266.07 7.56 266.27 7.01C266.46 6.47 266.74 5.99 267.11 5.61C267.47 5.24 267.92 4.94 268.44 4.73C268.95 4.52 269.53 4.42 270.17 4.42C271.35 4.42 272.29 4.58 272.97 4.90C273.01 5.81 273.04 6.31 273.04 6.41C273.06 6.64 273.15 6.75 273.35 6.75L273.69 6.75L273.69 4.51C273.25 4.31 272.69 4.14 271.99 4.00C271.29 3.86 270.70 3.81 270.20 3.81C269.44 3.81 268.76 3.92 268.14 4.16C267.53 4.40 267.01 4.75 266.57 5.18C266.14 5.61 265.82 6.15 265.58 6.78C265.34 7.39 265.23 8.09 265.23 8.86C265.23 9.63 265.34 10.32 265.58 10.95C265.82 11.58 266.14 12.10 266.56 12.54C266.98 12.99 267.50 13.33 268.09 13.57C268.67 13.80 269.32 13.93 270.03 13.93C270.45 13.93 270.83 13.90 271.18 13.86C271.53 13.80 271.85 13.73 272.16 13.65C272.47 13.55 272.75 13.44 273.01 13.30C273.28 13.16 273.53 13.01 273.78 12.84L273.78 9.32ZM291.91 4.44C292.10 4.42 292.19 4.34 292.19 4.19L292.19 3.92L291.02 3.92L290.29 3.92L289.11 3.92L289.11 4.19C289.11 4.34 289.21 4.42 289.39 4.44L289.52 4.44C289.59 4.44 289.70 4.45 289.84 4.45C289.98 4.45 290.12 4.47 290.29 4.47L290.29 8.53L284.09 8.53L284.09 4.47C284.26 4.47 284.41 4.45 284.55 4.45C284.69 4.45 284.79 4.44 284.86 4.44L285.00 4.44C285.18 4.42 285.26 4.34 285.26 4.19L285.26 3.92L284.09 3.92L283.37 3.92L282.18 3.92L282.18 4.19C282.18 4.34 282.28 4.42 282.46 4.44L282.60 4.44C282.67 4.44 282.77 4.45 282.91 4.45C283.05 4.45 283.21 4.47 283.37 4.47L283.37 13.26C283.21 13.26 283.05 13.27 282.91 13.27C282.77 13.27 282.67 13.29 282.60 13.29L282.46 13.29C282.28 13.30 282.18 13.38 282.18 13.54L282.18 13.82L283.37 13.82L284.09 13.82L285.26 13.82L285.26 13.54C285.26 13.38 285.18 13.30 285.00 13.29L284.86 13.29C284.79 13.29 284.69 13.27 284.55 13.27C284.41 13.27 284.26 13.26 284.09 13.26L284.09 9.07L290.29 9.07L290.29 13.26C290.12 13.26 289.98 13.27 289.84 13.27C289.70 13.27 289.59 13.29 289.52 13.29L289.39 13.29C289.21 13.30 289.11 13.38 289.11 13.54L289.11 13.82L290.29 13.82L291.02 13.82L292.19 13.82L292.19 13.54C292.19 13.38 292.10 13.30 291.91 13.29L291.79 13.29C291.72 13.29 291.61 13.27 291.47 13.27C291.33 13.27 291.19 13.26 291.02 13.26L291.02 4.47C291.19 4.47 291.33 4.45 291.47 4.45C291.61 4.45 291.72 4.44 291.79 4.44ZM317.28 11.97C317.09 11.97 317.00 12.08 316.99 12.31C316.99 12.32 316.99 12.38 316.97 12.43C316.96 12.49 316.96 12.59 316.95 12.71C316.93 12.84 316.92 13.01 316.90 13.20L312.82 13.20L312.82 4.47C312.98 4.47 313.12 4.45 313.26 4.45C313.40 4.45 313.52 4.44 313.59 4.44L313.71 4.44C313.89 4.42 313.99 4.34 313.99 4.19L313.99 3.92L312.82 3.92L312.10 3.92L310.91 3.92L310.91 4.19C310.91 4.34 311.01 4.42 311.19 4.44L311.33 4.44C311.40 4.44 311.50 4.45 311.64 4.45C311.78 4.45 311.93 4.47 312.10 4.47L312.10 13.26C311.93 13.26 311.78 13.27 311.64 13.27C311.50 13.27 311.40 13.29 311.33 13.29L311.19 13.29C311.01 13.30 310.91 13.38 310.91 13.54L310.91 13.82L312.10 13.82L317.38 13.82L317.51 13.82L317.63 13.82L317.63 13.55L317.63 12.99L317.63 11.97L317.35 11.97ZM335.36 13.22L334.89 13.17L331.11 3.91L330.40 3.91L326.61 13.17L326.16 13.22C325.98 13.23 325.89 13.33 325.89 13.50L325.89 13.82L326.34 13.82L326.63 13.82L326.89 13.82L326.98 13.82L328.30 13.82L328.30 13.50C328.30 13.31 328.19 13.23 327.98 13.22C327.96 13.22 327.94 13.20 327.89 13.20C327.85 13.20 327.80 13.19 327.70 13.19C327.60 13.19 327.47 13.19 327.33 13.17L328.31 10.75L328.38 10.57L333.12 10.57L333.19 10.75L334.17 13.17C334.03 13.19 333.91 13.19 333.82 13.19C333.72 13.19 333.65 13.20 333.61 13.20C333.56 13.20 333.54 13.22 333.52 13.22C333.31 13.23 333.20 13.31 333.20 13.50L333.20 13.82L334.52 13.82L334.61 13.82L334.88 13.82L335.16 13.82L335.62 13.82L335.62 13.50C335.62 13.33 335.54 13.23 335.36 13.22ZM330.55 5.22C330.58 5.14 330.62 5.04 330.65 4.94C330.68 4.84 330.72 4.75 330.75 4.63C330.78 4.75 330.82 4.84 330.85 4.94C330.88 5.04 330.92 5.12 330.95 5.21L332.91 10.04L328.61 10.04ZM352.17 3.92L351.46 3.92L350.10 3.92L350.10 4.19C350.10 4.34 350.20 4.42 350.38 4.44L350.55 4.44C350.64 4.44 350.78 4.45 350.95 4.45C351.12 4.45 351.29 4.47 351.46 4.47L351.46 10.04C351.46 10.50 351.39 10.92 351.25 11.33C351.11 11.73 350.91 12.08 350.64 12.38C350.38 12.67 350.07 12.89 349.69 13.06C349.31 13.23 348.89 13.31 348.42 13.31C347.94 13.31 347.51 13.23 347.13 13.06C346.75 12.89 346.43 12.66 346.18 12.36C345.91 12.07 345.73 11.72 345.59 11.33C345.45 10.93 345.38 10.50 345.38 10.04L345.38 4.47C345.55 4.47 345.72 4.45 345.88 4.45C346.05 4.45 346.19 4.44 346.29 4.44L346.46 4.44C346.64 4.42 346.74 4.34 346.74 4.19L346.74 3.92L345.38 3.92L344.67 3.92L343.49 3.92L343.49 4.19C343.49 4.34 343.57 4.42 343.76 4.44L343.90 4.44C343.97 4.44 344.06 4.45 344.20 4.45C344.34 4.45 344.50 4.47 344.67 4.47L344.67 10.04C344.67 10.58 344.75 11.09 344.92 11.56C345.09 12.04 345.34 12.46 345.66 12.81C345.98 13.16 346.39 13.44 346.85 13.64C347.31 13.83 347.84 13.93 348.42 13.93C348.99 13.93 349.51 13.83 349.97 13.64C350.43 13.44 350.84 13.16 351.16 12.81C351.48 12.46 351.74 12.04 351.90 11.56C352.07 11.09 352.17 10.58 352.17 10.04L352.17 4.47C352.34 4.47 352.48 4.45 352.62 4.45C352.76 4.45 352.87 4.44 352.94 4.44L353.07 4.44C353.25 4.42 353.35 4.34 353.35 4.19L353.35 3.92ZM370.20 3.92L369.57 3.92L368.35 3.92L368.35 4.19C368.35 4.34 368.45 4.42 368.63 4.44L368.77 4.44C368.84 4.44 368.96 4.45 369.10 4.45C369.24 4.45 369.40 4.47 369.57 4.47L369.57 12.22C369.57 12.35 369.57 12.49 369.59 12.63L363.17 4.05C363.13 3.99 363.10 3.95 363.06 3.93C363.02 3.92 362.98 3.91 362.91 3.91L362.56 3.91L361.37 3.91L361.37 4.19C361.37 4.34 361.47 4.42 361.65 4.44L361.79 4.44C361.86 4.44 361.96 4.45 362.10 4.45C362.24 4.45 362.39 4.47 362.56 4.47L362.56 13.26C362.39 13.26 362.24 13.27 362.10 13.27C361.96 13.27 361.86 13.29 361.79 13.29L361.65 13.29C361.47 13.30 361.37 13.38 361.37 13.54L361.37 13.82L362.56 13.82L363.17 13.82L364.39 13.82L364.39 13.54C364.39 13.38 364.29 13.30 364.11 13.29L363.97 13.29C363.90 13.29 363.78 13.27 363.64 13.27C363.50 13.27 363.34 13.26 363.17 13.26L363.17 5.49C363.17 5.36 363.17 5.22 363.16 5.08L369.60 13.68C369.67 13.78 369.74 13.82 369.85 13.82L370.20 13.82L370.20 4.47C370.37 4.47 370.51 4.45 370.65 4.45C370.79 4.45 370.90 4.44 370.97 4.44L371.10 4.44C371.28 4.42 371.38 4.34 371.38 4.19L371.38 3.92ZM388.42 6.80C388.19 6.19 387.87 5.68 387.45 5.25C387.03 4.82 386.54 4.48 385.97 4.26C385.39 4.03 384.73 3.92 384.03 3.92L380.60 3.92L379.41 3.92L379.41 4.19C379.41 4.34 379.51 4.42 379.69 4.44L379.83 4.44C379.90 4.44 380.00 4.45 380.14 4.45C380.28 4.45 380.44 4.47 380.60 4.47L380.60 13.26C380.44 13.26 380.28 13.27 380.14 13.27C380.00 13.27 379.90 13.29 379.83 13.29L379.69 13.29C379.51 13.30 379.41 13.38 379.41 13.54L379.41 13.82L380.60 13.82L384.03 13.82C384.73 13.82 385.39 13.71 385.97 13.48C386.54 13.26 387.03 12.92 387.45 12.49C387.87 12.05 388.19 11.54 388.42 10.92C388.64 10.30 388.77 9.63 388.77 8.86C388.77 8.11 388.64 7.42 388.42 6.80ZM387.73 10.72C387.53 11.27 387.28 11.72 386.93 12.10C386.58 12.47 386.16 12.75 385.67 12.95C385.18 13.15 384.64 13.24 384.03 13.24L381.32 13.24L381.32 4.49L384.03 4.49C384.64 4.49 385.18 4.59 385.67 4.79C386.16 4.98 386.58 5.26 386.93 5.64C387.28 6.02 387.53 6.47 387.73 7.01C387.93 7.56 388.02 8.18 388.02 8.86C388.02 9.56 387.93 10.18 387.73 10.72ZM405.05 13.29L404.95 13.29L404.77 13.29C404.68 13.29 404.60 13.27 404.52 13.27L401.55 9.53C401.46 9.42 401.35 9.32 401.24 9.25C401.67 9.21 402.07 9.11 402.42 8.96C402.77 8.81 403.05 8.61 403.30 8.37C403.54 8.13 403.73 7.85 403.86 7.55C403.98 7.24 404.05 6.89 404.05 6.51C404.05 5.66 403.77 5.03 403.21 4.58C402.65 4.14 401.80 3.92 400.65 3.92L398.24 3.92L397.07 3.92L397.07 4.19C397.07 4.34 397.15 4.42 397.33 4.44L397.47 4.44C397.54 4.44 397.64 4.45 397.78 4.45C397.92 4.45 398.08 4.47 398.24 4.47L398.24 13.26C398.08 13.26 397.92 13.27 397.78 13.27C397.64 13.27 397.54 13.29 397.47 13.29L397.33 13.29C397.15 13.30 397.05 13.38 397.05 13.54L397.05 13.82L398.24 13.82L398.96 13.82L400.13 13.82L400.13 13.54C400.13 13.38 400.04 13.30 399.85 13.29L399.71 13.29C399.64 13.29 399.55 13.27 399.41 13.27C399.27 13.27 399.13 13.26 398.96 13.26L398.96 9.34L400.13 9.34C400.33 9.34 400.47 9.35 400.55 9.39C400.64 9.44 400.72 9.52 400.81 9.62L403.98 13.64C404.04 13.71 404.08 13.75 404.14 13.78C404.19 13.80 404.26 13.82 404.33 13.82L404.40 13.82L404.95 13.82L405.31 13.82L405.31 13.54C405.31 13.38 405.23 13.30 405.05 13.29ZM400.55 8.81L398.96 8.81L398.96 4.48L400.65 4.48C401.53 4.48 402.21 4.66 402.67 5.00C403.13 5.33 403.35 5.87 403.35 6.57C403.35 6.92 403.30 7.21 403.17 7.49C403.05 7.77 402.85 7.99 402.61 8.19C402.37 8.39 402.08 8.55 401.73 8.65C401.38 8.75 400.99 8.81 400.55 8.81ZM421.65 3.92L421.58 3.92L421.02 3.92L420.91 3.92L419.51 3.92L419.51 4.19C419.51 4.34 419.61 4.42 419.79 4.44L419.90 4.44C419.96 4.44 420.03 4.45 420.14 4.45C420.25 4.45 420.38 4.47 420.52 4.47L417.93 8.64C417.86 8.75 417.80 8.85 417.76 8.95C417.72 9.04 417.68 9.16 417.63 9.25C417.59 9.16 417.55 9.04 417.51 8.95C417.47 8.85 417.41 8.75 417.34 8.64L414.74 4.47C414.88 4.47 415.00 4.45 415.11 4.45C415.23 4.45 415.31 4.44 415.37 4.44L415.46 4.44C415.65 4.42 415.74 4.34 415.74 4.19L415.74 3.92L414.34 3.92L414.23 3.92L413.67 3.92L413.60 3.92L413.15 3.92L413.15 4.19C413.15 4.34 413.25 4.42 413.43 4.44C413.67 4.45 413.85 4.47 413.95 4.47L417.27 9.73L417.27 13.26C417.10 13.26 416.95 13.27 416.81 13.27C416.67 13.27 416.57 13.29 416.50 13.29L416.37 13.29C416.19 13.30 416.09 13.38 416.09 13.54L416.09 13.82L417.27 13.82L417.98 13.82L419.16 13.82L419.16 13.54C419.16 13.38 419.08 13.30 418.89 13.29L418.75 13.29C418.68 13.29 418.59 13.27 418.45 13.27C418.31 13.27 418.15 13.26 417.98 13.26L417.98 9.73L421.30 4.47C421.41 4.47 421.58 4.45 421.82 4.44C422.00 4.42 422.10 4.34 422.10 4.19L422.10 3.92Z"></path></g></svg>