<svg data-v-fde0c5aa="" xmlns="http://www.w3.org/2000/svg" viewBox="0 0 300 300" class="font"><!----><defs data-v-fde0c5aa=""><!----></defs><rect data-v-fde0c5aa="" fill="transparent" x="0" y="0" width="300px" height="300px" class="logo-background-square"></rect><defs data-v-fde0c5aa=""><linearGradient data-v-fde0c5aa="" gradientTransform="rotate(25)" id="fc102a15-d65b-4bc4-85a1-d7b2bb54d573" x1="0%" y1="0%" x2="100%" y2="0%"><stop data-v-fde0c5aa="" offset="0%" stop-color="#177775" stop-opacity="1"></stop><stop data-v-fde0c5aa="" offset="100%" stop-color="#28D2BF" stop-opacity="1"></stop></linearGradient></defs><g data-v-fde0c5aa="" id="f3f593c8-ac8d-43e7-9547-7c6d3f774241" fill="url(#fc102a15-d65b-4bc4-85a1-d7b2bb54d573)" transform="matrix(1.120505266901359,0,0,1.120505266901359,39.52938776920098,138.1786694876205)"><path d="M0.42 14.44L0.42 14.44L0.42 14.01Q0.42 13.81 0.63 13.81L0.63 13.81L0.64 13.81Q1.66 13.81 1.66 12.48L1.66 12.48L1.66 6.32Q1.66 4.99 0.64 4.99L0.64 4.99L0.63 4.99Q0.42 4.99 0.42 4.78L0.42 4.78L0.42 4.36Q0.42 4.15 0.63 4.15L0.63 4.15L4.88 4.15Q4.99 4.15 5.06 4.21Q5.13 4.27 5.13 4.36L5.13 4.36L5.13 4.78Q5.13 4.87 5.00 4.93Q4.87 4.99 4.74 4.99L4.74 4.99L3.90 4.99L3.90 12.33Q3.90 13.62 4.86 13.65L4.86 13.65L5.40 13.65Q5.70 13.65 5.91 13.63Q6.13 13.62 6.43 13.56Q6.73 13.49 6.99 13.35Q7.25 13.21 7.54 12.98Q7.84 12.76 8.14 12.40Q8.44 12.03 8.74 11.55L8.74 11.55L8.78 11.47Q8.86 11.35 8.96 11.35L8.96 11.35Q9.02 11.35 9.08 11.39L9.08 11.39L9.52 11.65Q9.64 11.72 9.64 11.82L9.64 11.82Q9.64 11.89 9.60 11.94L9.60 11.94L8.29 14.72Q8.24 14.84 8.12 14.84L8.12 14.84Q8.07 14.84 8.00 14.79L8.00 14.79L7.92 14.72Q7.83 14.65 7.65 14.65L7.65 14.65L0.63 14.65Q0.42 14.65 0.42 14.44ZM10.27 11.13L10.27 11.13Q10.27 10.19 10.54 9.47Q10.81 8.75 11.28 8.32Q11.74 7.90 12.32 7.68Q12.89 7.46 13.55 7.46L13.55 7.46Q14.92 7.46 15.82 8.28L15.82 8.28Q15.98 8.21 16.12 8.15Q16.26 8.08 16.39 8.01Q16.52 7.94 16.60 7.90Q16.68 7.85 16.79 7.78Q16.90 7.71 16.94 7.69Q16.97 7.66 17.08 7.58Q17.19 7.50 17.21 7.49L17.21 7.49Q17.25 7.46 17.27 7.46L17.27 7.46L17.30 7.46Q17.32 7.46 17.32 7.49L17.32 7.49L17.32 12.05Q17.32 12.34 17.36 12.54Q17.39 12.75 17.48 12.95Q17.56 13.15 17.73 13.27Q17.90 13.39 18.14 13.42L18.14 13.42Q18.32 13.44 18.31 13.60L18.31 13.60L18.31 14.08Q18.31 14.26 18.10 14.26L18.10 14.26Q17.46 14.26 16.94 14.35Q16.43 14.44 16.18 14.53Q15.94 14.62 15.52 14.80L15.52 14.80Q15.47 14.83 15.41 14.83L15.41 14.83L15.37 14.83Q15.35 14.83 15.35 14.78L15.35 14.78L15.52 13.54Q15.44 13.72 15.31 13.90Q15.18 14.09 14.94 14.31Q14.70 14.54 14.29 14.68Q13.88 14.83 13.38 14.83L13.38 14.83Q12.98 14.83 12.57 14.71Q12.15 14.59 11.74 14.30Q11.32 14.01 11.00 13.60Q10.68 13.19 10.48 12.55Q10.27 11.91 10.27 11.13ZM12.08 10.68L12.08 10.68Q12.08 12.01 12.61 12.80Q13.15 13.59 14.01 13.59L14.01 13.59Q14.31 13.59 14.55 13.49Q14.79 13.40 14.94 13.27Q15.08 13.13 15.18 13.00Q15.29 12.86 15.33 12.76L15.33 12.76L15.36 12.67L15.36 9.86Q15.31 9.61 15.22 9.39Q15.13 9.16 14.96 8.92Q14.79 8.68 14.49 8.54Q14.19 8.39 13.80 8.39Q13.41 8.39 13.10 8.52Q12.80 8.65 12.61 8.87Q12.42 9.08 12.30 9.38Q12.17 9.68 12.13 9.99Q12.08 10.31 12.08 10.68ZM18.15 8.28L18.15 8.28L18.15 7.85Q18.15 7.65 18.36 7.65L18.36 7.65L18.40 7.64L21.21 7.64Q21.42 7.64 21.42 7.85L21.42 7.85L21.42 11.93Q21.42 11.97 21.42 12.04L21.42 12.04Q21.42 12.26 21.42 12.37Q21.42 12.48 21.44 12.67Q21.46 12.87 21.49 12.97Q21.53 13.07 21.60 13.21Q21.68 13.34 21.78 13.42Q21.89 13.49 22.05 13.54Q22.22 13.59 22.43 13.59L22.43 13.59Q22.93 13.59 23.44 13.22Q23.95 12.86 24.13 12.40L24.13 12.40L24.13 9.82Q24.13 9.22 23.86 8.85Q23.60 8.48 23.11 8.48L23.11 8.48L23.07 8.48Q22.87 8.48 22.87 8.28L22.87 8.28L22.87 7.85Q22.87 7.66 23.08 7.64L23.08 7.64L25.89 7.64Q26.10 7.64 26.10 7.85L26.10 7.85L26.10 11.81Q26.10 12.15 26.12 12.37Q26.15 12.60 26.22 12.85Q26.30 13.10 26.48 13.25Q26.65 13.39 26.93 13.42L26.93 13.42Q27.10 13.44 27.09 13.60L27.09 13.60L27.09 14.08Q27.09 14.26 26.89 14.26L26.89 14.26Q26.24 14.26 25.72 14.35Q25.20 14.44 24.98 14.53Q24.75 14.61 24.32 14.80L24.32 14.80Q24.26 14.83 24.20 14.83L24.20 14.83L24.17 14.83Q24.14 14.83 24.14 14.78L24.14 14.78L24.36 13.02Q24.21 13.34 23.98 13.63Q23.75 13.93 23.44 14.21Q23.13 14.49 22.71 14.66Q22.29 14.83 21.83 14.83L21.83 14.83Q21.25 14.83 20.82 14.67Q20.38 14.51 20.13 14.27Q19.87 14.02 19.72 13.65Q19.56 13.29 19.51 12.93Q19.46 12.56 19.46 12.13L19.46 12.13L19.46 9.82Q19.46 9.22 19.19 8.85Q18.92 8.48 18.42 8.48L18.42 8.48L18.36 8.48Q18.15 8.48 18.15 8.28ZM27.60 14.43L27.60 14.43L27.60 14.01Q27.60 13.80 27.81 13.80L27.81 13.80L27.84 13.80Q28.33 13.80 28.60 13.43Q28.86 13.06 28.86 12.47L28.86 12.47L28.86 10.71Q28.86 10.37 28.84 10.14Q28.81 9.92 28.74 9.67Q28.66 9.41 28.49 9.27Q28.31 9.13 28.03 9.10L28.03 9.10Q27.86 9.08 27.87 8.92L27.87 8.92L27.87 8.44Q27.87 8.29 28.07 8.26L28.07 8.26Q28.96 8.11 29.72 7.81Q30.48 7.50 30.84 7.24L30.84 7.24Q30.89 7.21 30.91 7.21L30.91 7.21L30.94 7.21Q30.95 7.21 30.95 7.23L30.95 7.23L30.71 9.06Q31.71 7.46 33.13 7.46L33.13 7.46Q33.71 7.46 34.14 7.62Q34.58 7.77 34.83 8.02Q35.09 8.27 35.24 8.64Q35.40 9.00 35.45 9.37Q35.51 9.73 35.51 10.17L35.51 10.17L35.51 12.47Q35.51 13.06 35.77 13.43Q36.04 13.80 36.54 13.80L36.54 13.80L36.60 13.80Q36.81 13.80 36.81 14.01L36.81 14.01L36.81 14.43Q36.81 14.64 36.60 14.64L36.60 14.64L32.80 14.64Q32.59 14.64 32.59 14.43L32.59 14.43L32.59 14.01Q32.59 13.80 32.81 13.80L32.81 13.80Q33.19 13.81 33.37 13.44L33.37 13.44Q33.54 13.10 33.54 12.55L33.54 12.55Q33.54 12.51 33.54 12.47L33.54 12.47L33.54 10.36Q33.54 10.32 33.54 10.25L33.54 10.25Q33.54 10.04 33.54 9.92Q33.54 9.81 33.52 9.62Q33.50 9.43 33.47 9.32Q33.43 9.21 33.36 9.08Q33.28 8.94 33.18 8.87Q33.07 8.80 32.91 8.75Q32.74 8.70 32.53 8.70L32.53 8.70Q32.03 8.70 31.52 9.06Q31.01 9.43 30.83 9.89L30.83 9.89L30.83 12.47Q30.83 13.06 31.10 13.43Q31.36 13.80 31.86 13.80L31.86 13.80L31.89 13.80Q32.09 13.80 32.09 14.01L32.09 14.01L32.09 14.43Q32.09 14.64 31.88 14.64L31.88 14.64L27.81 14.64Q27.60 14.64 27.60 14.43ZM36.82 11.13L36.82 11.13Q36.82 10.19 37.09 9.47Q37.36 8.75 37.82 8.32Q38.29 7.90 38.86 7.68Q39.44 7.46 40.09 7.46L40.09 7.46Q41.16 7.46 41.91 8.11L41.91 8.11L41.91 7.23Q41.91 6.88 41.89 6.66Q41.86 6.43 41.78 6.18Q41.71 5.93 41.53 5.78Q41.35 5.64 41.08 5.61L41.08 5.61Q40.90 5.59 40.91 5.43L40.91 5.43L40.91 4.96Q40.91 4.87 40.96 4.84Q41.00 4.81 41.12 4.77L41.12 4.77Q42.68 4.25 43.75 3.47L43.75 3.47Q43.79 3.45 43.81 3.45L43.81 3.45L43.85 3.45Q43.86 3.45 43.86 3.47L43.86 3.47L43.86 12.05Q43.87 12.34 43.90 12.54Q43.93 12.75 44.02 12.95Q44.11 13.15 44.27 13.27Q44.44 13.39 44.69 13.42L44.69 13.42Q44.86 13.44 44.85 13.60L44.85 13.60L44.85 14.08Q44.85 14.26 44.65 14.26L44.65 14.26Q44.01 14.26 43.49 14.35Q42.97 14.44 42.74 14.53Q42.51 14.61 42.08 14.80L42.08 14.80Q42.02 14.83 41.95 14.83L41.95 14.83L41.92 14.83Q41.89 14.83 41.90 14.78L41.90 14.78L42.06 13.54Q41.99 13.72 41.86 13.90Q41.73 14.09 41.48 14.31Q41.24 14.54 40.83 14.68Q40.43 14.83 39.92 14.83L39.92 14.83Q39.53 14.83 39.11 14.71Q38.70 14.59 38.28 14.30Q37.86 14.01 37.54 13.60Q37.22 13.19 37.02 12.55Q36.82 11.91 36.82 11.13ZM38.62 10.68L38.62 10.68Q38.62 12.01 39.16 12.80Q39.69 13.59 40.56 13.59L40.56 13.59Q40.85 13.59 41.09 13.47Q41.34 13.34 41.48 13.17Q41.62 13.00 41.73 12.83Q41.83 12.65 41.87 12.53L41.87 12.53L41.90 12.41L41.90 10.11Q41.82 9.42 41.42 8.98Q41.02 8.53 40.35 8.53L40.35 8.53Q38.62 8.53 38.62 10.68ZM45.45 14.43L45.45 14.43L45.45 14.01Q45.45 13.80 45.65 13.80L45.65 13.80L45.68 13.80Q46.18 13.80 46.44 13.43Q46.70 13.06 46.70 12.47L46.70 12.47L46.70 10.71Q46.70 10.37 46.68 10.14Q46.66 9.92 46.58 9.67Q46.50 9.41 46.33 9.27Q46.15 9.13 45.88 9.10L45.88 9.10Q45.70 9.08 45.71 8.92L45.71 8.92L45.71 8.44Q45.71 8.29 45.91 8.26L45.91 8.26Q46.81 8.11 47.56 7.81Q48.32 7.50 48.69 7.24L48.69 7.24Q48.73 7.21 48.75 7.21L48.75 7.21L48.78 7.21Q48.79 7.21 48.79 7.23L48.79 7.23L48.47 9.11Q48.84 8.32 49.50 7.89Q50.16 7.46 50.93 7.46L50.93 7.46Q51.62 7.46 52.07 7.84Q52.51 8.22 52.51 8.91L52.51 8.91Q52.51 9.28 52.45 9.49Q52.38 9.70 52.14 9.80L52.14 9.80L50.83 10.34Q50.77 10.36 50.71 10.36L50.71 10.36Q50.58 10.36 50.58 10.23L50.58 10.23Q50.58 10.16 50.61 10.10L50.61 10.10Q50.74 9.79 50.74 9.41L50.74 9.41Q50.74 9.04 50.56 8.86Q50.37 8.68 50.07 8.68L50.07 8.68Q49.64 8.68 49.25 9.06Q48.86 9.44 48.67 9.89L48.67 9.89L48.67 12.47Q48.67 13.06 48.94 13.43Q49.21 13.80 49.70 13.80L49.70 13.80L49.72 13.80Q49.94 13.80 49.94 14.01L49.94 14.01L49.94 14.43Q49.94 14.64 49.72 14.64L49.72 14.64L45.65 14.64Q45.45 14.64 45.45 14.43ZM52.97 8.26L52.97 8.26L52.97 7.85Q52.97 7.64 53.18 7.64L53.18 7.64L56.42 7.64Q56.62 7.64 56.62 7.85L56.62 7.85L56.62 8.26Q56.62 8.48 56.42 8.48L56.42 8.48L56.39 8.48Q55.95 8.48 55.95 8.84L55.95 8.84Q55.95 9.10 56.26 9.80L56.26 9.80L57.20 11.85L58.21 9.77Q58.56 9.06 58.56 8.78L58.56 8.78Q58.56 8.48 58.24 8.48L58.24 8.48L57.99 8.48Q57.78 8.48 57.78 8.26L57.78 8.26L57.78 7.85Q57.78 7.64 57.99 7.64L57.99 7.64L60.70 7.64Q60.90 7.64 60.90 7.85L60.90 7.85L60.90 8.26Q60.90 8.48 60.70 8.48L60.70 8.48L60.49 8.48Q60.26 8.48 60.09 8.66Q59.92 8.84 59.68 9.35L59.68 9.35L55.62 17.53Q55.53 17.71 55.34 17.62L55.34 17.62L54.62 17.26Q54.42 17.17 54.52 16.98L54.52 16.98L56.08 13.62L54.02 9.36Q53.76 8.82 53.62 8.65Q53.47 8.48 53.22 8.48L53.22 8.48L53.18 8.48Q52.97 8.48 52.97 8.26ZM64.97 14.43L64.97 14.43L64.97 14.01Q64.97 13.80 65.17 13.80L65.17 13.80L65.27 13.80Q66.21 13.75 66.21 12.47L66.21 12.47L66.21 6.32Q66.21 5.03 65.27 4.98L65.27 4.98L65.17 4.98Q64.97 4.98 64.97 4.77L64.97 4.77L64.97 4.35Q64.97 4.14 65.17 4.14L65.17 4.14L69.48 4.14Q69.69 4.14 69.69 4.35L69.69 4.35L69.69 4.77Q69.69 4.98 69.48 4.98L69.48 4.98L69.40 4.98Q68.46 5.03 68.46 6.32L68.46 6.32L68.46 12.47Q68.46 13.75 69.40 13.80L69.40 13.80L69.48 13.80Q69.69 13.80 69.69 14.01L69.69 14.01L69.69 14.43Q69.69 14.64 69.48 14.64L69.48 14.64L65.17 14.64Q64.97 14.64 64.97 14.43ZM70.38 14.43L70.38 14.43L70.38 14.01Q70.38 13.80 70.59 13.80L70.59 13.80L70.62 13.80Q71.11 13.80 71.37 13.43Q71.63 13.06 71.63 12.47L71.63 12.47L71.63 10.71Q71.63 10.37 71.61 10.14Q71.59 9.92 71.51 9.67Q71.44 9.41 71.26 9.27Q71.08 9.13 70.81 9.10L70.81 9.10Q70.63 9.08 70.64 8.92L70.64 8.92L70.64 8.44Q70.64 8.29 70.85 8.26L70.85 8.26Q71.74 8.11 72.50 7.81Q73.25 7.51 73.62 7.24L73.62 7.24Q73.67 7.21 73.68 7.21L73.68 7.21L73.71 7.21Q73.73 7.21 73.73 7.23L73.73 7.23L73.48 9.06Q74.48 7.46 75.90 7.46L75.90 7.46Q77.70 7.46 78.13 8.83L78.13 8.83Q79.18 7.46 80.70 7.46L80.70 7.46Q81.28 7.46 81.71 7.62Q82.15 7.77 82.40 8.02Q82.66 8.27 82.81 8.64Q82.97 9.00 83.02 9.37Q83.08 9.73 83.08 10.17L83.08 10.17L83.08 12.47Q83.08 13.06 83.34 13.43Q83.61 13.80 84.11 13.80L84.11 13.80L84.25 13.80Q84.46 13.80 84.46 14.01L84.46 14.01L84.46 14.43Q84.46 14.64 84.25 14.64L84.25 14.64L80.31 14.64Q80.10 14.64 80.10 14.43L80.10 14.43L80.10 14.01Q80.10 13.80 80.31 13.80L80.31 13.80L80.38 13.80Q80.80 13.80 80.95 13.49Q81.11 13.18 81.11 12.47L81.11 12.47L81.11 10.36Q81.11 10.32 81.11 10.23L81.11 10.23Q81.11 9.99 81.10 9.86Q81.10 9.73 81.08 9.51Q81.05 9.30 80.99 9.18Q80.92 9.06 80.82 8.94Q80.71 8.81 80.53 8.75Q80.35 8.70 80.10 8.70L80.10 8.70Q79.53 8.70 79.06 9.05Q78.60 9.41 78.29 10.02L78.29 10.02L78.29 12.47Q78.29 13.21 78.51 13.50Q78.74 13.80 79.17 13.80L79.17 13.80L79.28 13.80Q79.49 13.80 79.49 14.01L79.49 14.01L79.49 14.43Q79.49 14.64 79.28 14.64L79.28 14.64L75.48 14.64Q75.27 14.64 75.27 14.43L75.27 14.43L75.27 14.01Q75.27 13.80 75.48 13.80L75.48 13.80L75.58 13.80Q75.91 13.80 76.12 13.49L76.12 13.49Q76.32 13.19 76.32 12.52L76.32 12.52Q76.32 12.50 76.32 12.47L76.32 12.47L76.32 10.36Q76.32 10.32 76.32 10.23L76.32 10.23Q76.32 9.95 76.31 9.81Q76.31 9.68 76.28 9.46Q76.25 9.24 76.19 9.14Q76.13 9.03 76.02 8.91Q75.91 8.79 75.73 8.74Q75.55 8.70 75.30 8.70L75.30 8.70Q74.80 8.70 74.29 9.06Q73.79 9.43 73.60 9.89L73.60 9.89L73.60 12.47Q73.60 13.05 73.85 13.43Q74.09 13.80 74.49 13.80L74.49 13.80L74.53 13.80Q74.74 13.80 74.74 14.01L74.74 14.01L74.74 14.43Q74.74 14.64 74.53 14.64L74.53 14.64L70.59 14.64Q70.38 14.64 70.38 14.43ZM84.32 17.23L84.32 16.81Q84.32 16.60 84.55 16.60L84.55 16.60Q85.05 16.60 85.31 16.24L85.31 16.24Q85.56 15.89 85.56 15.33L85.56 15.33Q85.56 15.30 85.56 15.27L85.56 15.27L85.57 15.00L85.57 10.46Q85.57 10.19 85.56 10.01Q85.54 9.82 85.50 9.60Q85.45 9.37 85.36 9.23Q85.28 9.09 85.12 8.98Q84.96 8.87 84.74 8.85L84.74 8.85Q84.56 8.83 84.57 8.67L84.57 8.67L84.57 8.20Q84.57 8.01 84.78 8.01L84.78 8.01Q85.42 8.01 85.94 7.92Q86.46 7.83 86.69 7.75Q86.91 7.66 87.35 7.47L87.35 7.47Q87.40 7.44 87.47 7.44L87.47 7.44L87.50 7.44Q87.52 7.44 87.51 7.49L87.51 7.49L87.36 8.74Q87.42 8.60 87.50 8.46Q87.59 8.31 87.77 8.12Q87.94 7.93 88.17 7.79Q88.39 7.65 88.74 7.55Q89.09 7.44 89.50 7.44L89.50 7.44Q89.89 7.44 90.31 7.56Q90.72 7.68 91.14 7.97Q91.55 8.25 91.88 8.66Q92.20 9.08 92.40 9.72Q92.60 10.36 92.60 11.14L92.60 11.14Q92.60 12.07 92.33 12.80Q92.06 13.52 91.60 13.95Q91.14 14.38 90.56 14.60Q89.99 14.81 89.33 14.81L89.33 14.81Q88.27 14.81 87.51 14.16L87.51 14.16L87.51 15.27Q87.51 15.87 87.78 16.24Q88.05 16.60 88.55 16.60L88.55 16.60Q88.75 16.60 88.75 16.81L88.75 16.81L88.75 17.23Q88.75 17.45 88.55 17.45L88.55 17.45L84.53 17.45Q84.32 17.45 84.32 17.23L84.32 17.23ZM87.51 9.60L87.51 12.15Q87.60 12.87 88.01 13.38Q88.42 13.90 89.08 13.90L89.08 13.90Q89.47 13.90 89.78 13.77Q90.08 13.64 90.27 13.42Q90.46 13.21 90.58 12.90Q90.71 12.60 90.75 12.28Q90.80 11.96 90.80 11.59L90.80 11.59Q90.80 10.26 90.27 9.47Q89.74 8.68 88.87 8.68L88.87 8.68Q88.57 8.68 88.33 8.78Q88.08 8.87 87.94 9.01Q87.79 9.15 87.69 9.28Q87.59 9.41 87.55 9.51L87.55 9.51L87.51 9.60ZM93.43 11.13L93.43 11.13Q93.43 10.19 93.70 9.47Q93.97 8.75 94.44 8.32Q94.90 7.90 95.48 7.68Q96.05 7.46 96.71 7.46L96.71 7.46Q98.08 7.46 98.98 8.28L98.98 8.28Q99.14 8.21 99.28 8.15Q99.42 8.08 99.55 8.01Q99.67 7.94 99.76 7.90Q99.84 7.85 99.95 7.78Q100.06 7.71 100.10 7.69Q100.13 7.66 100.24 7.58Q100.35 7.50 100.37 7.49L100.37 7.49Q100.41 7.46 100.43 7.46L100.43 7.46L100.46 7.46Q100.47 7.46 100.47 7.49L100.47 7.49L100.47 12.05Q100.48 12.34 100.52 12.54Q100.55 12.75 100.64 12.95Q100.72 13.15 100.89 13.27Q101.06 13.39 101.30 13.42L101.30 13.42Q101.48 13.44 101.47 13.60L101.47 13.60L101.47 14.08Q101.47 14.26 101.26 14.26L101.26 14.26Q100.62 14.26 100.10 14.35Q99.59 14.44 99.34 14.53Q99.10 14.62 98.68 14.80L98.68 14.80Q98.63 14.83 98.57 14.83L98.57 14.83L98.53 14.83Q98.51 14.83 98.51 14.78L98.51 14.78L98.68 13.54Q98.60 13.72 98.47 13.90Q98.34 14.09 98.10 14.31Q97.86 14.54 97.45 14.68Q97.04 14.83 96.54 14.83L96.54 14.83Q96.14 14.83 95.73 14.71Q95.31 14.59 94.90 14.30Q94.48 14.01 94.16 13.60Q93.84 13.19 93.64 12.55Q93.43 11.91 93.43 11.13ZM95.24 10.68L95.24 10.68Q95.24 12.01 95.77 12.80Q96.30 13.59 97.17 13.59L97.17 13.59Q97.47 13.59 97.71 13.49Q97.95 13.40 98.10 13.27Q98.24 13.13 98.34 13.00Q98.44 12.86 98.49 12.76L98.49 12.76L98.52 12.67L98.52 9.86Q98.47 9.61 98.38 9.39Q98.29 9.16 98.12 8.92Q97.95 8.68 97.65 8.54Q97.35 8.39 96.96 8.39Q96.57 8.39 96.26 8.52Q95.96 8.65 95.77 8.87Q95.58 9.08 95.46 9.38Q95.33 9.68 95.29 9.99Q95.24 10.31 95.24 10.68ZM101.79 10.81L101.79 10.81Q101.86 9.97 102.19 9.31Q102.53 8.65 103.03 8.26Q103.54 7.88 104.12 7.68Q104.71 7.48 105.32 7.48L105.32 7.48L105.58 7.49Q106.76 7.57 107.36 8.11Q107.96 8.64 108.12 9.41L108.12 9.41L108.13 9.47Q108.13 9.61 107.97 9.65L107.97 9.65L106.36 10.08Q106.29 10.10 106.24 10.10L106.24 10.10Q106.18 10.10 106.15 10.08Q106.12 10.06 106.13 10.01L106.13 10.01L106.14 9.86Q106.15 9.79 106.15 9.71L106.15 9.71Q106.15 9.21 105.90 8.93L105.90 8.93Q105.61 8.60 105 8.59L105 8.59Q104.37 8.59 104.02 9.09Q103.67 9.58 103.61 10.36L103.61 10.36Q103.58 10.72 103.58 10.89L103.58 10.89Q103.58 11.44 103.68 11.90Q103.78 12.37 104.00 12.75Q104.21 13.13 104.60 13.35Q104.98 13.58 105.49 13.58L105.49 13.58Q105.57 13.58 105.75 13.56L105.75 13.56Q106.18 13.52 106.60 13.27Q107.01 13.01 107.31 12.56L107.31 12.56Q107.38 12.46 107.47 12.46L107.47 12.46Q107.54 12.46 107.60 12.50L107.60 12.50L107.97 12.76Q108.13 12.87 108.05 13.04L108.05 13.04Q107.33 14.56 105.50 14.75L105.50 14.75Q105.31 14.77 105.12 14.77L105.12 14.77Q104.35 14.77 103.69 14.43Q103.03 14.10 102.60 13.54L102.60 13.54Q102.16 12.99 101.94 12.27L101.94 12.27Q101.77 11.71 101.77 11.13L101.77 11.13Q101.77 10.97 101.79 10.81ZM108.66 8.27L108.66 8.27L108.66 7.85Q108.66 7.64 108.88 7.64L108.88 7.64L109.89 7.64L109.89 6.71Q109.89 6.53 110.02 6.45L110.02 6.45Q110.99 5.93 111.73 5.30L111.73 5.30Q111.77 5.26 111.79 5.26L111.79 5.26L111.82 5.26Q111.85 5.26 111.85 5.28L111.85 5.28L111.85 7.64L113.72 7.64Q113.93 7.64 113.93 7.85L113.93 7.85L113.93 8.46Q113.93 8.67 113.72 8.67L113.72 8.67L111.86 8.67L111.86 12.67Q111.86 13.62 112.44 13.62L112.44 13.62Q112.79 13.62 113.44 13.22L113.44 13.22L113.45 13.21Q113.51 13.17 113.57 13.17L113.57 13.17Q113.66 13.17 113.74 13.28L113.74 13.28L113.96 13.63Q114.00 13.69 114.00 13.75L114.00 13.75Q114.00 13.84 113.89 13.92L113.89 13.92L113.48 14.18Q112.44 14.82 111.51 14.82L111.51 14.82Q111.17 14.82 110.89 14.71Q110.61 14.61 110.38 14.37Q110.15 14.13 110.02 13.70Q109.89 13.27 109.89 12.67L109.89 12.67L109.89 10.08Q109.89 9.86 109.88 9.74Q109.88 9.63 109.86 9.43Q109.85 9.24 109.81 9.13Q109.77 9.02 109.70 8.88Q109.63 8.74 109.52 8.66Q109.42 8.59 109.25 8.54Q109.09 8.48 108.88 8.48Q108.66 8.48 108.66 8.27ZM118.06 4.78L118.06 4.78L118.06 4.35Q118.06 4.14 118.28 4.14L118.28 4.14L125.29 4.14Q125.47 4.14 125.56 4.07L125.56 4.07L125.64 4.00Q125.71 3.95 125.75 3.95L125.75 3.95Q125.86 3.95 125.93 4.07L125.93 4.07L127.05 5.97Q127.09 6.04 127.09 6.10L127.09 6.10Q127.09 6.19 126.97 6.27L126.97 6.27L126.38 6.58Q126.32 6.62 126.26 6.62L126.26 6.62Q126.16 6.62 126.09 6.51L126.09 6.51L126.04 6.43Q125.30 5.14 123.53 5.14L123.53 5.14L121.46 5.14L121.46 8.56L122.77 8.56Q124.05 8.56 124.10 7.62L124.10 7.62L124.10 7.53Q124.10 7.31 124.30 7.31L124.30 7.31L124.73 7.31Q124.94 7.31 124.94 7.53L124.94 7.53L124.94 10.71Q124.94 10.92 124.73 10.92L124.73 10.92L124.30 10.92Q124.10 10.92 124.10 10.71L124.10 10.71L124.10 10.62Q124.05 9.68 122.77 9.68L122.77 9.68L121.54 9.68L121.54 12.47Q121.54 13.75 122.49 13.80L122.49 13.80L122.58 13.80Q122.79 13.80 122.79 14.01L122.79 14.01L122.79 14.43Q122.79 14.64 122.58 14.64L122.58 14.64L118.28 14.64Q118.07 14.64 118.07 14.43L118.07 14.43L118.07 14.01Q118.07 13.80 118.28 13.80L118.28 13.80L118.36 13.80Q119.31 13.75 119.31 12.47L119.31 12.47L119.31 6.32Q119.31 4.98 118.29 4.98L118.29 4.98L118.28 4.98Q118.06 4.98 118.06 4.78ZM126.66 11.07L126.66 11.07Q126.66 10.01 127.22 9.11Q127.78 8.20 128.75 7.77L128.75 7.77Q129.42 7.47 130.17 7.47L130.17 7.47Q131.23 7.47 132.15 8.07Q133.07 8.66 133.53 9.69L133.53 9.69Q133.85 10.41 133.85 11.22L133.85 11.22Q133.85 12.28 133.29 13.17Q132.73 14.07 131.76 14.51L131.76 14.51Q131.07 14.81 130.33 14.81L130.33 14.81Q129.27 14.81 128.35 14.22Q127.44 13.62 126.98 12.60L126.98 12.60Q126.66 11.87 126.66 11.07ZM128.33 10.19L128.33 10.19Q128.33 10.96 128.72 11.83L128.72 11.83Q129.08 12.63 129.62 13.16Q130.16 13.69 130.77 13.69L130.77 13.69Q131.04 13.69 131.33 13.57L131.33 13.57Q132.18 13.20 132.18 12.09L132.18 12.09Q132.18 11.33 131.79 10.46L131.79 10.46Q131.43 9.65 130.88 9.12Q130.34 8.59 129.73 8.59L129.73 8.59Q129.46 8.59 129.17 8.72L129.17 8.72Q128.33 9.08 128.33 10.19ZM134.00 8.28L134.00 8.28L134.00 7.85Q134.00 7.65 134.22 7.65L134.22 7.65L134.25 7.64L137.07 7.64Q137.27 7.64 137.27 7.85L137.27 7.85L137.27 11.93Q137.27 11.97 137.27 12.04L137.27 12.04Q137.27 12.26 137.27 12.37Q137.27 12.48 137.29 12.67Q137.31 12.87 137.35 12.97Q137.38 13.07 137.46 13.21Q137.53 13.34 137.64 13.42Q137.74 13.49 137.91 13.54Q138.07 13.59 138.28 13.59L138.28 13.59Q138.79 13.59 139.30 13.22Q139.80 12.86 139.99 12.40L139.99 12.40L139.99 9.82Q139.99 9.22 139.72 8.85Q139.45 8.48 138.96 8.48L138.96 8.48L138.93 8.48Q138.72 8.48 138.72 8.28L138.72 8.28L138.72 7.85Q138.72 7.66 138.93 7.64L138.93 7.64L141.74 7.64Q141.96 7.64 141.96 7.85L141.96 7.85L141.96 11.81Q141.96 12.15 141.98 12.37Q142.00 12.60 142.08 12.85Q142.15 13.10 142.33 13.25Q142.51 13.39 142.78 13.42L142.78 13.42Q142.96 13.44 142.95 13.60L142.95 13.60L142.95 14.08Q142.95 14.26 142.74 14.26L142.74 14.26Q142.10 14.26 141.58 14.35Q141.06 14.44 140.83 14.53Q140.61 14.61 140.17 14.80L140.17 14.80Q140.12 14.83 140.05 14.83L140.05 14.83L140.02 14.83Q140 14.83 140 14.78L140 14.78L140.22 13.02Q140.06 13.34 139.84 13.63Q139.61 13.93 139.30 14.21Q138.98 14.49 138.56 14.66Q138.15 14.83 137.69 14.83L137.69 14.83Q137.11 14.83 136.67 14.67Q136.24 14.51 135.98 14.27Q135.73 14.02 135.57 13.65Q135.42 13.29 135.37 12.93Q135.31 12.56 135.31 12.13L135.31 12.13L135.31 9.82Q135.31 9.22 135.04 8.85Q134.78 8.48 134.28 8.48L134.28 8.48L134.22 8.48Q134.00 8.48 134.00 8.28ZM143.46 14.43L143.46 14.43L143.46 14.01Q143.46 13.80 143.66 13.80L143.66 13.80L143.70 13.80Q144.19 13.80 144.45 13.43Q144.72 13.06 144.72 12.47L144.72 12.47L144.72 10.71Q144.72 10.37 144.69 10.14Q144.67 9.92 144.59 9.67Q144.52 9.41 144.34 9.27Q144.16 9.13 143.89 9.10L143.89 9.10Q143.71 9.08 143.73 8.92L143.73 8.92L143.73 8.44Q143.73 8.29 143.92 8.26L143.92 8.26Q144.82 8.11 145.58 7.81Q146.34 7.50 146.70 7.24L146.70 7.24Q146.75 7.21 146.76 7.21L146.76 7.21L146.79 7.21Q146.81 7.21 146.81 7.23L146.81 7.23L146.56 9.06Q147.57 7.46 148.98 7.46L148.98 7.46Q149.56 7.46 150.00 7.62Q150.43 7.77 150.69 8.02Q150.94 8.27 151.10 8.64Q151.25 9.00 151.31 9.37Q151.36 9.73 151.36 10.17L151.36 10.17L151.36 12.47Q151.36 13.06 151.63 13.43Q151.89 13.80 152.39 13.80L152.39 13.80L152.46 13.80Q152.67 13.80 152.67 14.01L152.67 14.01L152.67 14.43Q152.67 14.64 152.46 14.64L152.46 14.64L148.65 14.64Q148.44 14.64 148.44 14.43L148.44 14.43L148.44 14.01Q148.44 13.80 148.66 13.80L148.66 13.80Q149.04 13.81 149.23 13.44L149.23 13.44Q149.40 13.10 149.40 12.55L149.40 12.55Q149.40 12.51 149.40 12.47L149.40 12.47L149.40 10.36Q149.40 10.32 149.40 10.25L149.40 10.25Q149.40 10.04 149.40 9.92Q149.40 9.81 149.38 9.62Q149.36 9.43 149.32 9.32Q149.29 9.21 149.21 9.08Q149.14 8.94 149.03 8.87Q148.93 8.80 148.76 8.75Q148.60 8.70 148.39 8.70L148.39 8.70Q147.88 8.70 147.38 9.06Q146.87 9.43 146.69 9.89L146.69 9.89L146.69 12.47Q146.69 13.06 146.95 13.43Q147.22 13.80 147.71 13.80L147.71 13.80L147.75 13.80Q147.95 13.80 147.95 14.01L147.95 14.01L147.95 14.43Q147.95 14.64 147.74 14.64L147.74 14.64L143.66 14.64Q143.46 14.64 143.46 14.43ZM152.67 11.13L152.67 11.13Q152.67 10.19 152.94 9.47Q153.21 8.75 153.68 8.32Q154.14 7.90 154.72 7.68Q155.29 7.46 155.95 7.46L155.95 7.46Q157.01 7.46 157.77 8.11L157.77 8.11L157.77 7.23Q157.77 6.88 157.74 6.66Q157.72 6.43 157.64 6.18Q157.56 5.93 157.38 5.78Q157.21 5.64 156.93 5.61L156.93 5.61Q156.75 5.59 156.77 5.43L156.77 5.43L156.77 4.96Q156.77 4.87 156.81 4.84Q156.86 4.81 156.97 4.77L156.97 4.77Q158.53 4.25 159.61 3.47L159.61 3.47Q159.65 3.45 159.67 3.45L159.67 3.45L159.70 3.45Q159.71 3.45 159.71 3.47L159.71 3.47L159.71 12.05Q159.72 12.34 159.76 12.54Q159.79 12.75 159.88 12.95Q159.96 13.15 160.13 13.27Q160.30 13.39 160.54 13.42L160.54 13.42Q160.72 13.44 160.71 13.60L160.71 13.60L160.71 14.08Q160.71 14.26 160.51 14.26L160.51 14.26Q159.87 14.26 159.35 14.35Q158.83 14.44 158.60 14.53Q158.37 14.61 157.93 14.80L157.93 14.80Q157.88 14.83 157.81 14.83L157.81 14.83L157.77 14.83Q157.75 14.83 157.76 14.78L157.76 14.78L157.92 13.54Q157.84 13.72 157.71 13.90Q157.58 14.09 157.34 14.31Q157.10 14.54 156.69 14.68Q156.28 14.83 155.78 14.83L155.78 14.83Q155.38 14.83 154.97 14.71Q154.55 14.59 154.14 14.30Q153.72 14.01 153.40 13.60Q153.08 13.19 152.88 12.55Q152.67 11.91 152.67 11.13ZM154.48 10.68L154.48 10.68Q154.48 12.01 155.01 12.80Q155.54 13.59 156.41 13.59L156.41 13.59Q156.71 13.59 156.95 13.47Q157.19 13.34 157.34 13.17Q157.48 13.00 157.58 12.83Q157.68 12.65 157.73 12.53L157.73 12.53L157.76 12.41L157.76 10.11Q157.68 9.42 157.27 8.98Q156.87 8.53 156.20 8.53L156.20 8.53Q154.48 8.53 154.48 10.68ZM161.01 11.13L161.01 11.13Q161.01 10.19 161.28 9.47Q161.55 8.75 162.02 8.32Q162.48 7.90 163.06 7.68Q163.63 7.46 164.29 7.46L164.29 7.46Q165.66 7.46 166.56 8.28L166.56 8.28Q166.72 8.21 166.86 8.15Q167.00 8.08 167.13 8.01Q167.25 7.94 167.34 7.90Q167.42 7.85 167.53 7.78Q167.64 7.71 167.68 7.69Q167.71 7.66 167.82 7.58Q167.93 7.50 167.95 7.49L167.95 7.49Q167.99 7.46 168.01 7.46L168.01 7.46L168.04 7.46Q168.05 7.46 168.05 7.49L168.05 7.49L168.05 12.05Q168.06 12.34 168.10 12.54Q168.13 12.75 168.22 12.95Q168.30 13.15 168.47 13.27Q168.64 13.39 168.88 13.42L168.88 13.42Q169.06 13.44 169.05 13.60L169.05 13.60L169.05 14.08Q169.05 14.26 168.84 14.26L168.84 14.26Q168.20 14.26 167.68 14.35Q167.17 14.44 166.92 14.53Q166.68 14.62 166.26 14.80L166.26 14.80Q166.21 14.83 166.15 14.83L166.15 14.83L166.11 14.83Q166.09 14.83 166.09 14.78L166.09 14.78L166.26 13.54Q166.18 13.72 166.05 13.90Q165.92 14.09 165.68 14.31Q165.44 14.54 165.03 14.68Q164.62 14.83 164.12 14.83L164.12 14.83Q163.72 14.83 163.31 14.71Q162.89 14.59 162.48 14.30Q162.06 14.01 161.74 13.60Q161.42 13.19 161.22 12.55Q161.01 11.91 161.01 11.13ZM162.82 10.68L162.82 10.68Q162.82 12.01 163.35 12.80Q163.88 13.59 164.75 13.59L164.75 13.59Q165.05 13.59 165.29 13.49Q165.53 13.40 165.68 13.27Q165.82 13.13 165.92 13.00Q166.02 12.86 166.07 12.76L166.07 12.76L166.10 12.67L166.10 9.86Q166.05 9.61 165.96 9.39Q165.87 9.16 165.70 8.92Q165.53 8.68 165.23 8.54Q164.93 8.39 164.54 8.39Q164.15 8.39 163.84 8.52Q163.54 8.65 163.35 8.87Q163.16 9.08 163.04 9.38Q162.91 9.68 162.87 9.99Q162.82 10.31 162.82 10.68ZM169.23 8.27L169.23 8.27L169.23 7.85Q169.23 7.64 169.44 7.64L169.44 7.64L170.45 7.64L170.45 6.71Q170.45 6.53 170.58 6.45L170.58 6.45Q171.55 5.93 172.30 5.30L172.30 5.30Q172.33 5.26 172.36 5.26L172.36 5.26L172.38 5.26Q172.42 5.26 172.42 5.28L172.42 5.28L172.42 7.64L174.29 7.64Q174.50 7.64 174.50 7.85L174.50 7.85L174.50 8.46Q174.50 8.67 174.29 8.67L174.29 8.67L172.42 8.67L172.42 12.67Q172.42 13.62 173.00 13.62L173.00 13.62Q173.36 13.62 174.00 13.22L174.00 13.22L174.02 13.21Q174.08 13.17 174.14 13.17L174.14 13.17Q174.23 13.17 174.30 13.28L174.30 13.28L174.53 13.63Q174.57 13.69 174.57 13.75L174.57 13.75Q174.57 13.84 174.46 13.92L174.46 13.92L174.04 14.18Q173.01 14.82 172.08 14.82L172.08 14.82Q171.74 14.82 171.46 14.71Q171.18 14.61 170.95 14.37Q170.71 14.13 170.58 13.70Q170.45 13.27 170.45 12.67L170.45 12.67L170.45 10.08Q170.45 9.86 170.45 9.74Q170.45 9.63 170.43 9.43Q170.41 9.24 170.38 9.13Q170.34 9.02 170.27 8.88Q170.19 8.74 170.09 8.66Q169.98 8.59 169.82 8.54Q169.65 8.48 169.44 8.48Q169.23 8.48 169.23 8.27ZM175.12 14.43L175.12 14.43L175.12 14.01Q175.12 13.80 175.33 13.80L175.33 13.80L175.36 13.80Q175.85 13.79 176.12 13.43L176.12 13.43Q176.37 13.07 176.37 12.52L176.37 12.52Q176.37 12.50 176.37 12.47L176.37 12.47L176.37 10.99Q176.37 10.70 176.35 10.49Q176.33 10.29 176.25 10.05Q176.18 9.81 176.00 9.67Q175.82 9.53 175.55 9.50L175.55 9.50Q175.37 9.48 175.38 9.32L175.38 9.32L175.38 8.85Q175.38 8.76 175.43 8.73Q175.47 8.70 175.58 8.66L175.58 8.66Q177.38 8.06 178.16 7.24L178.16 7.24Q178.19 7.21 178.22 7.21L178.22 7.21L178.25 7.21Q178.27 7.21 178.28 7.23L178.28 7.23L178.28 12.47Q178.28 13.06 178.55 13.43Q178.81 13.80 179.31 13.80L179.31 13.80L179.35 13.80Q179.56 13.80 179.56 14.01L179.56 14.01L179.56 14.43Q179.56 14.53 179.49 14.59Q179.42 14.64 179.32 14.64L179.32 14.64L175.36 14.64Q175.26 14.64 175.19 14.59Q175.12 14.53 175.12 14.43ZM176.25 5.33L176.25 5.33Q176.25 4.98 176.60 4.63Q176.95 4.29 177.30 4.29L177.30 4.29Q177.65 4.29 178.00 4.63L178.00 4.63Q178.36 4.99 178.36 5.33L178.36 5.33Q178.36 5.68 178.00 6.04L178.00 6.04Q177.65 6.38 177.30 6.38L177.30 6.38Q176.95 6.38 176.60 6.04Q176.25 5.69 176.25 5.33ZM179.87 11.07L179.87 11.07Q179.87 10.01 180.43 9.11Q180.99 8.20 181.96 7.77L181.96 7.77Q182.63 7.47 183.37 7.47L183.37 7.47Q184.43 7.47 185.35 8.07Q186.27 8.66 186.73 9.69L186.73 9.69Q187.06 10.41 187.06 11.22L187.06 11.22Q187.06 12.28 186.50 13.17Q185.94 14.07 184.96 14.51L184.96 14.51Q184.27 14.81 183.54 14.81L183.54 14.81Q182.48 14.81 181.56 14.22Q180.64 13.62 180.19 12.60L180.19 12.60Q179.87 11.87 179.87 11.07ZM181.54 10.19L181.54 10.19Q181.54 10.96 181.92 11.83L181.92 11.83Q182.29 12.63 182.83 13.16Q183.37 13.69 183.98 13.69L183.98 13.69Q184.25 13.69 184.54 13.57L184.54 13.57Q185.38 13.20 185.38 12.09L185.38 12.09Q185.38 11.33 184.99 10.46L184.99 10.46Q184.63 9.65 184.09 9.12Q183.54 8.59 182.94 8.59L182.94 8.59Q182.66 8.59 182.38 8.72L182.38 8.72Q181.54 9.08 181.54 10.19ZM187.55 14.43L187.55 14.43L187.55 14.01Q187.55 13.80 187.76 13.80L187.76 13.80L187.79 13.80Q188.28 13.80 188.55 13.43Q188.81 13.06 188.81 12.47L188.81 12.47L188.81 10.71Q188.81 10.37 188.78 10.14Q188.76 9.92 188.69 9.67Q188.61 9.41 188.43 9.27Q188.25 9.13 187.98 9.10L187.98 9.10Q187.80 9.08 187.82 8.92L187.82 8.92L187.82 8.44Q187.82 8.29 188.02 8.26L188.02 8.26Q188.91 8.11 189.67 7.81Q190.43 7.50 190.79 7.24L190.79 7.24Q190.84 7.21 190.85 7.21L190.85 7.21L190.89 7.21Q190.90 7.21 190.90 7.23L190.90 7.23L190.65 9.06Q191.66 7.46 193.07 7.46L193.07 7.46Q193.66 7.46 194.09 7.62Q194.52 7.77 194.78 8.02Q195.04 8.27 195.19 8.64Q195.34 9.00 195.40 9.37Q195.45 9.73 195.45 10.17L195.45 10.17L195.45 12.47Q195.45 13.06 195.72 13.43Q195.99 13.80 196.49 13.80L196.49 13.80L196.55 13.80Q196.76 13.80 196.76 14.01L196.76 14.01L196.76 14.43Q196.76 14.64 196.55 14.64L196.55 14.64L192.75 14.64Q192.53 14.64 192.53 14.43L192.53 14.43L192.53 14.01Q192.53 13.80 192.75 13.80L192.75 13.80Q193.14 13.81 193.32 13.44L193.32 13.44Q193.49 13.10 193.49 12.55L193.49 12.55Q193.49 12.51 193.49 12.47L193.49 12.47L193.49 10.36Q193.49 10.32 193.49 10.25L193.49 10.25Q193.49 10.04 193.49 9.92Q193.49 9.81 193.47 9.62Q193.45 9.43 193.42 9.32Q193.38 9.21 193.31 9.08Q193.23 8.94 193.13 8.87Q193.02 8.80 192.86 8.75Q192.69 8.70 192.48 8.70L192.48 8.70Q191.97 8.70 191.47 9.06Q190.96 9.43 190.78 9.89L190.78 9.89L190.78 12.47Q190.78 13.06 191.04 13.43Q191.31 13.80 191.80 13.80L191.80 13.80L191.84 13.80Q192.04 13.80 192.04 14.01L192.04 14.01L192.04 14.43Q192.04 14.64 191.83 14.64L191.83 14.64L187.76 14.64Q187.55 14.64 187.55 14.43Z"></path></g><!----><!----></svg>